<svg width="249" height="295" viewBox="0 0 249 295" fill="none" xmlns="http://www.w3.org/2000/svg">
<path d="M124.48 265.553C193.175 265.553 248.863 209.865 248.863 141.17C248.863 72.4758 193.175 16.7878 124.48 16.7878C55.7857 16.7878 0.0976562 72.4758 0.0976562 141.17C0.0976562 209.865 55.7857 265.553 124.48 265.553Z" fill="#E6E6E6"/>
<path d="M231.541 141.17C231.541 175.051 215.516 206.872 188.35 227.094C187.435 227.78 186.519 228.391 185.603 229.078C148.899 254.641 100.138 254.641 63.4336 229.078C62.5179 228.467 61.6022 227.78 60.6865 227.094C13.2227 191.839 3.37896 124.764 38.6334 77.3766C44.8907 68.9827 52.2926 61.5044 60.6865 55.3235C61.6022 54.6367 62.5179 54.0262 63.4336 53.3394C100.138 27.7762 148.899 27.7762 185.603 53.3394C186.519 53.9499 187.435 54.6367 188.35 55.3235C215.516 75.3926 231.541 107.289 231.541 141.17Z" fill="white"/>
<path d="M124.48 238.921C178.467 238.921 222.231 195.157 222.231 141.17C222.231 87.184 178.467 43.4194 124.48 43.4194C70.4941 43.4194 26.7295 87.184 26.7295 141.17C26.7295 195.157 70.4941 238.921 124.48 238.921Z" fill="#3468FF"/>
<path opacity="0.2" d="M124.785 43.6483C123.335 43.6483 121.809 43.7246 120.359 43.7246C174.156 48.4558 213.913 95.9196 209.182 149.641C204.909 198.478 165.152 236.556 116.238 238.769C119.062 238.998 121.885 239.15 124.785 239.15C178.811 239.15 222.536 195.349 222.536 141.399C222.536 87.4493 178.735 43.6483 124.785 43.6483Z" fill="black"/>
<path d="M124.785 36.4754C123.03 36.4754 121.58 37.9253 121.58 39.6804V53.5685C121.58 55.3236 123.03 56.7735 124.785 56.7735C126.54 56.7735 127.99 55.3236 127.99 53.5685V39.6041C127.99 37.849 126.54 36.4754 124.785 36.4754Z" fill="white"/>
<path d="M188.351 55.2472C187.435 54.5604 186.52 53.95 185.604 53.2632C184.459 53.1869 183.391 53.7211 182.78 54.6368L174.997 66.083C174.005 67.5329 174.387 69.5169 175.836 70.5089C177.286 71.5009 179.27 71.1194 180.262 69.6695L188.046 58.2232C188.656 57.3839 188.732 56.2392 188.351 55.2472Z" fill="white"/>
<path d="M223.833 107.518C223.147 105.916 221.315 105.077 219.713 105.763L206.817 110.952C205.214 111.639 204.375 113.47 205.062 115.073C205.748 116.675 207.58 117.515 209.182 116.828L222.078 111.639C223.757 111.029 224.52 109.197 223.833 107.518Z" fill="white"/>
<path d="M74.0403 66.1594L66.2568 54.7131C65.6464 53.7974 64.5781 53.2633 63.4334 53.3396C62.5177 53.95 61.602 54.6368 60.6863 55.3236C60.3048 56.3156 60.3811 57.4602 60.9916 58.2996L68.775 69.7459C69.767 71.1957 71.751 71.5773 73.2009 70.5853C74.6508 69.5933 75.0323 67.6092 74.0403 66.1594Z" fill="white"/>
<path d="M42.1438 111.029L29.2477 105.84C27.6452 105.153 25.7375 105.992 25.1271 107.595C24.4403 109.197 25.2797 111.105 26.8821 111.715L39.7783 116.904C41.3807 117.591 43.2884 116.752 43.8989 115.149C44.5857 113.547 43.8226 111.715 42.1438 111.029Z" fill="white"/>
<path d="M124.785 225.644C123.03 225.644 121.58 227.094 121.58 228.849V242.66C121.58 244.416 123.03 245.865 124.785 245.865C126.54 245.865 127.99 244.416 127.99 242.66V228.772C127.99 227.017 126.54 225.644 124.785 225.644Z" fill="white"/>
<path d="M188.046 224.041L180.262 212.595C179.27 211.145 177.286 210.764 175.836 211.756C174.387 212.748 174.005 214.732 174.997 216.182L182.78 227.628C183.391 228.544 184.459 229.078 185.604 229.001C186.52 228.391 187.435 227.704 188.351 227.017C188.732 226.102 188.656 224.957 188.046 224.041Z" fill="white"/>
<path d="M222.078 170.626L209.182 165.437C207.58 164.75 205.672 165.589 205.062 167.192C204.375 168.794 205.214 170.702 206.817 171.312L219.713 176.501C221.315 177.188 223.223 176.349 223.833 174.746C224.52 173.144 223.757 171.312 222.078 170.626Z" fill="white"/>
<path d="M73.2009 211.756C71.751 210.764 69.767 211.145 68.775 212.595L60.9916 224.041C60.3811 224.957 60.3048 226.025 60.6863 227.017C61.602 227.704 62.5177 228.315 63.4334 229.001C64.5781 229.078 65.6464 228.544 66.2568 227.628L74.0403 216.182C75.0323 214.732 74.6508 212.748 73.2009 211.756Z" fill="white"/>
<path d="M43.8989 167.115C43.2121 165.513 41.3807 164.673 39.7783 165.36L26.8821 170.549C25.2797 171.236 24.4403 173.067 25.1271 174.67C25.8138 176.272 27.6452 177.112 29.2477 176.425L42.1438 171.236C43.8226 170.625 44.5857 168.794 43.8989 167.115Z" fill="white"/>
<path d="M128.906 139.568C129.516 143.155 127.074 146.588 123.488 147.275L67.0195 156.89C63.433 157.501 59.9991 155.059 59.3123 151.472C58.7019 147.886 61.1437 144.452 64.7302 143.765L121.198 134.15C124.861 133.54 128.295 135.982 128.906 139.568Z" fill="#1A237E"/>
<path d="M188.349 202.141C186.671 203.82 183.923 203.82 182.245 202.141L121.503 141.857C119.824 140.178 119.824 137.431 121.503 135.753C123.182 134.074 125.929 134.074 127.608 135.753L188.349 196.036C190.028 197.715 190.028 200.462 188.349 202.141Z" fill="#1A237E"/>
<path d="M124.479 148.725C128.652 148.725 132.034 145.343 132.034 141.17C132.034 136.998 128.652 133.616 124.479 133.616C120.307 133.616 116.925 136.998 116.925 141.17C116.925 145.343 120.307 148.725 124.479 148.725Z" fill="#0086FF"/>
<path d="M170.724 248.918C169.198 249.757 168.663 251.741 169.503 253.267L187.893 286.08C188.732 287.606 190.717 288.14 192.243 287.301C193.769 286.462 194.303 284.478 193.464 282.951L175.073 250.139C174.234 248.613 172.326 248.078 170.724 248.918Z" fill="#E6E6E6"/>
<path d="M73.9634 250.139L55.5731 282.951C54.7337 284.478 55.2679 286.462 56.7941 287.301C58.3202 288.14 60.3043 287.606 61.1436 286.08L79.5339 253.267C80.3733 251.741 79.8392 249.757 78.313 248.918C76.7105 248.078 74.8028 248.613 73.9634 250.139Z" fill="#E6E6E6"/>
<path d="M191.632 294.474C197.068 294.474 201.476 290.067 201.476 284.63C201.476 279.194 197.068 274.786 191.632 274.786C186.195 274.786 181.788 279.194 181.788 284.63C181.788 290.067 186.195 294.474 191.632 294.474Z" fill="#E6E6E6"/>
<path d="M123.946 19.6876C129.383 19.6876 133.79 15.2803 133.79 9.84378C133.79 4.40721 129.383 0 123.946 0C118.51 0 114.103 4.40721 114.103 9.84378C114.103 15.2803 118.51 19.6876 123.946 19.6876Z" fill="#E6E6E6"/>
<path d="M59.1612 294.474C64.5977 294.474 69.0049 290.067 69.0049 284.63C69.0049 279.194 64.5977 274.786 59.1612 274.786C53.7246 274.786 49.3174 279.194 49.3174 284.63C49.3174 290.067 53.7246 294.474 59.1612 294.474Z" fill="#E6E6E6"/>
</svg>
