<svg width="430" height="319" viewBox="0 0 430 319" fill="none" xmlns="http://www.w3.org/2000/svg">
<path d="M350.011 262.343C351.251 259.728 345.555 254.43 337.287 250.509C329.02 246.588 321.313 245.529 320.073 248.144C318.832 250.758 324.529 256.057 332.796 259.978C341.064 263.899 348.771 264.957 350.011 262.343Z" fill="#2F2E41"/>
<path d="M386.539 296.689H376.444V314.721H386.539V296.689Z" fill="#2F2E41"/>
<path d="M366.348 296.689H356.253V314.721H366.348V296.689Z" fill="#2F2E41"/>
<path d="M378.138 318.112C382.777 318.112 386.538 316.698 386.538 314.953C386.538 313.208 382.777 311.793 378.138 311.793C373.499 311.793 369.738 313.208 369.738 314.953C369.738 316.698 373.499 318.112 378.138 318.112Z" fill="#2F2E41"/>
<path d="M357.948 317.727C362.587 317.727 366.348 316.312 366.348 314.567C366.348 312.822 362.587 311.408 357.948 311.408C353.309 311.408 349.549 312.822 349.549 314.567C349.549 316.312 353.309 317.727 357.948 317.727Z" fill="#2F2E41"/>
<path d="M217.543 265.094H207.448V283.126H217.543V265.094Z" fill="#2F2E41"/>
<path d="M237.733 265.094H227.638V283.126H237.733V265.094Z" fill="#2F2E41"/>
<path d="M215.848 286.517C220.487 286.517 224.248 285.103 224.248 283.358C224.248 281.613 220.487 280.198 215.848 280.198C211.209 280.198 207.448 281.613 207.448 283.358C207.448 285.103 211.209 286.517 215.848 286.517Z" fill="#2F2E41"/>
<path d="M236.037 286.132C240.676 286.132 244.437 284.717 244.437 282.972C244.437 281.228 240.676 279.813 236.037 279.813C231.398 279.813 227.638 281.228 227.638 282.972C227.638 284.717 231.398 286.132 236.037 286.132Z" fill="#2F2E41"/>
<path d="M59.0286 296.689H48.9336V314.721H59.0286V296.689Z" fill="#2F2E41"/>
<path d="M79.218 296.689H69.123V314.721H79.218V296.689Z" fill="#2F2E41"/>
<path d="M57.3332 318.112C61.9722 318.112 65.7329 316.698 65.7329 314.953C65.7329 313.208 61.9722 311.793 57.3332 311.793C52.6942 311.793 48.9336 313.208 48.9336 314.953C48.9336 316.698 52.6942 318.112 57.3332 318.112Z" fill="#2F2E41"/>
<path d="M77.5227 317.727C82.1617 317.727 85.9223 316.312 85.9223 314.567C85.9223 312.822 82.1617 311.408 77.5227 311.408C72.8837 311.408 69.123 312.822 69.123 314.567C69.123 316.312 72.8837 317.727 77.5227 317.727Z" fill="#2F2E41"/>
<path d="M377.599 181.945C378.706 181.945 379.603 181.048 379.603 179.942C379.603 178.835 378.706 177.938 377.599 177.938C376.493 177.938 375.596 178.835 375.596 179.942C375.596 181.048 376.493 181.945 377.599 181.945Z" fill="#CCCCCC"/>
<path d="M185.794 148.347C188.007 148.347 189.801 146.553 189.801 144.34C189.801 142.127 188.007 140.333 185.794 140.333C183.581 140.333 181.787 142.127 181.787 144.34C181.787 146.553 183.581 148.347 185.794 148.347Z" fill="#CCCCCC"/>
<path d="M62.5735 186.569C63.8503 186.569 64.8854 185.534 64.8854 184.257C64.8854 182.98 63.8503 181.945 62.5735 181.945C61.2968 181.945 60.2617 182.98 60.2617 184.257C60.2617 185.534 61.2968 186.569 62.5735 186.569Z" fill="#CCCCCC"/>
<path d="M341.457 209.919C342.819 209.919 343.923 208.815 343.923 207.453C343.923 206.091 342.819 204.987 341.457 204.987C340.095 204.987 338.991 206.091 338.991 207.453C338.991 208.815 340.095 209.919 341.457 209.919Z" fill="#CCCCCC"/>
<path d="M289.287 204.91C290.393 204.91 291.29 204.013 291.29 202.906C291.29 201.8 290.393 200.903 289.287 200.903C288.18 200.903 287.283 201.8 287.283 202.906C287.283 204.013 288.18 204.91 289.287 204.91Z" fill="#CCCCCC"/>
<path d="M223.091 163.374C225.304 163.374 227.098 161.58 227.098 159.367C227.098 157.153 225.304 155.359 223.091 155.359C220.878 155.359 219.084 157.153 219.084 159.367C219.084 161.58 220.878 163.374 223.091 163.374Z" fill="#CCCCCC"/>
<path d="M199.896 200.902C201.173 200.902 202.208 199.867 202.208 198.59C202.208 197.314 201.173 196.279 199.896 196.279C198.619 196.279 197.584 197.314 197.584 198.59C197.584 199.867 198.619 200.902 199.896 200.902Z" fill="#CCCCCC"/>
<path d="M343.923 137.867C345.285 137.867 346.389 136.762 346.389 135.401C346.389 134.039 345.285 132.935 343.923 132.935C342.561 132.935 341.457 134.039 341.457 135.401C341.457 136.762 342.561 137.867 343.923 137.867Z" fill="#CCCCCC"/>
<path d="M372.435 303.856C390.778 303.856 405.648 288.986 405.648 270.643C405.648 252.299 390.778 237.429 372.435 237.429C354.092 237.429 339.222 252.299 339.222 270.643C339.222 288.986 354.092 303.856 372.435 303.856Z" fill="#1A237E"/>
<path d="M362.032 228.875C365.037 216.931 378.061 209.918 391.238 213.155C404.415 216.391 412.661 228.721 409.733 240.666C406.804 252.61 396.94 252.61 383.763 249.374C370.586 246.137 359.104 240.82 362.032 228.875Z" fill="#EC00FF"/>
<path d="M367.503 274.727C373.632 274.727 378.6 269.759 378.6 263.63C378.6 257.502 373.632 252.533 367.503 252.533C361.374 252.533 356.406 257.502 356.406 263.63C356.406 269.759 361.374 274.727 367.503 274.727Z" fill="white"/>
<path d="M362.957 263.399C365 263.399 366.656 261.743 366.656 259.7C366.656 257.657 365 256.001 362.957 256.001C360.914 256.001 359.258 257.657 359.258 259.7C359.258 261.743 360.914 263.399 362.957 263.399Z" fill="#3F3D56"/>
<path d="M374.438 286.671C375.208 290.678 372.511 294.531 368.504 295.225C364.497 295.996 360.644 293.299 359.95 289.291C359.257 285.284 362.339 283.897 366.346 283.126C370.277 282.433 373.744 282.664 374.438 286.671Z" fill="white"/>
<path d="M99.6586 247.478C102.925 238.931 103.382 231.165 100.679 230.131C97.9752 229.098 93.1356 235.19 89.8689 243.737C86.6023 252.284 86.1456 260.051 88.8489 261.084C91.5522 262.117 96.3919 256.026 99.6586 247.478Z" fill="#2F2E41"/>
<path d="M97.2087 273.017C98.509 254.719 84.7302 238.832 66.4329 237.532C48.1356 236.232 32.2485 250.011 30.9482 268.308C29.6479 286.605 43.4267 302.492 61.724 303.793C80.0213 305.093 95.9083 291.314 97.2087 273.017Z" fill="#1A237E"/>
<path d="M64.8856 273.571C71.1418 273.571 76.2135 268.499 76.2135 262.243C76.2135 255.987 71.1418 250.915 64.8856 250.915C58.6293 250.915 53.5576 255.987 53.5576 262.243C53.5576 268.499 58.6293 273.571 64.8856 273.571Z" fill="white"/>
<path d="M64.8844 266.019C66.9698 266.019 68.6604 264.328 68.6604 262.243C68.6604 260.158 66.9698 258.467 64.8844 258.467C62.799 258.467 61.1084 260.158 61.1084 262.243C61.1084 264.328 62.799 266.019 64.8844 266.019Z" fill="#3F3D56"/>
<path d="M31.9031 239.741C29.206 227.72 37.7597 215.621 51.0142 212.693C64.2687 209.764 77.1379 217.085 79.835 229.107C82.5321 241.128 73.7472 245.521 60.4927 248.526C47.2382 251.531 34.5232 251.763 31.9031 239.741Z" fill="#3468FF"/>
<path d="M41.6302 262.337C42.8703 259.722 37.1737 254.424 28.9064 250.503C20.6391 246.582 12.9318 245.524 11.6917 248.138C10.4516 250.753 16.1483 256.051 24.4156 259.972C32.6829 263.893 40.3901 264.952 41.6302 262.337Z" fill="#2F2E41"/>
<path d="M47.7773 282.587C47.7773 285.824 56.0999 292.22 65.4243 292.22C74.7487 292.22 83.3795 283.049 83.3795 279.813C83.3795 276.576 74.6716 280.429 65.4243 280.429C56.177 280.429 47.7773 279.351 47.7773 282.587Z" fill="white"/>
<path d="M222.629 272.261C240.972 272.261 255.843 257.391 255.843 239.048C255.843 220.704 240.972 205.834 222.629 205.834C204.286 205.834 189.416 220.704 189.416 239.048C189.416 257.391 204.286 272.261 222.629 272.261Z" fill="#1A237E"/>
<path d="M190.418 208.146C187.721 196.125 196.274 184.026 209.529 181.098C222.783 178.169 235.653 185.49 238.35 197.512C241.047 209.533 232.262 213.926 219.007 216.931C205.753 219.936 193.115 220.168 190.418 208.146Z" fill="#9D2DFF"/>
<path d="M258.355 224.474C265.544 217.278 269.542 209.616 267.284 207.36C265.026 205.104 257.367 209.108 250.178 216.304C242.988 223.499 238.991 231.161 241.249 233.417C243.507 235.673 251.165 231.669 258.355 224.474Z" fill="#2F2E41"/>
<path d="M195.821 235.839C198.079 233.583 194.081 225.921 186.892 218.725C179.702 211.53 172.044 207.526 169.786 209.782C167.528 212.038 171.525 219.7 178.715 226.895C185.904 234.091 193.563 238.095 195.821 235.839Z" fill="#2F2E41"/>
<path d="M121.756 318.266H0.770609C0.385305 318.266 0 317.881 0 317.496C0 317.11 0.385305 316.725 0.770609 316.725H121.756C122.219 316.725 122.527 317.11 122.527 317.496C122.527 317.881 122.219 318.266 121.756 318.266Z" fill="#CCCCCC"/>
<path d="M429.23 318.266H308.244C307.859 318.266 307.474 317.881 307.474 317.496C307.474 317.11 307.859 316.725 308.244 316.725H429.23C429.615 316.725 430.001 317.11 430.001 317.496C430.001 317.881 429.692 318.266 429.23 318.266Z" fill="#CCCCCC"/>
<path d="M285.126 286.671H164.141C163.678 286.671 163.37 286.286 163.37 285.901C163.37 285.515 163.678 285.13 164.141 285.13H285.126C285.512 285.13 285.897 285.515 285.897 285.901C285.897 286.286 285.589 286.671 285.126 286.671Z" fill="#CCCCCC"/>
<path d="M221.165 245.675C227.421 245.675 232.493 240.603 232.493 234.347C232.493 228.09 227.421 223.019 221.165 223.019C214.909 223.019 209.837 228.09 209.837 234.347C209.837 240.603 214.909 245.675 221.165 245.675Z" fill="white"/>
<path d="M221.165 238.123C223.25 238.123 224.941 236.432 224.941 234.347C224.941 232.261 223.25 230.571 221.165 230.571C219.079 230.571 217.389 232.261 217.389 234.347C217.389 236.432 219.079 238.123 221.165 238.123Z" fill="#3F3D56"/>
<path d="M206.446 253.15C206.446 256.386 214.846 262.782 224.093 262.782C233.341 262.782 242.048 253.612 242.048 250.375C242.048 247.139 233.341 250.992 224.093 250.992C214.846 250.992 206.446 249.913 206.446 253.15Z" fill="white"/>
<path d="M418.36 289.076C420.579 287.218 417.616 280.025 411.741 273.009C405.867 265.994 399.306 261.813 397.087 263.671C394.868 265.529 397.832 272.722 403.706 279.738C409.581 286.753 416.142 290.934 418.36 289.076Z" fill="#2F2E41"/>
<path d="M92.1647 134.707C84.6127 134.707 78.3708 129.004 77.5231 121.53L69.0464 43.3127C68.1987 35.2213 74.0553 27.9776 82.1467 27.0529L332.287 0.0815491C340.378 -0.766121 347.622 5.09051 348.546 13.1819L356.946 91.4758C357.794 99.5672 351.937 106.811 343.846 107.736V107.427V107.736L93.7059 134.707C93.2435 134.707 92.7041 134.707 92.1647 134.707Z" fill="#E6E6E6"/>
<path d="M329.512 3.78041C329.05 3.78041 328.588 3.78041 328.125 3.85747L87.0016 29.827C79.912 30.5976 74.7489 36.9937 75.5196 44.0833L79.7579 83.6155C82.6862 110.51 106.806 129.929 133.701 127.078L303.235 108.814C330.052 105.963 349.471 81.8431 346.543 55.0259L342.304 15.3396C341.611 8.78937 336.14 3.78041 329.512 3.78041Z" fill="white"/>
<path d="M278.729 45.008L143.95 59.4955C142.331 59.6496 140.867 58.4937 140.713 56.8754C140.559 55.2571 141.715 53.793 143.333 53.6388L278.113 39.1514C279.731 38.9973 281.195 40.1532 281.349 41.7715C281.503 43.3897 280.424 44.7768 278.729 45.008Z" fill="#1A237E"/>
<path d="M280.732 62.9633L145.952 77.4508C144.334 77.6049 142.87 76.449 142.716 74.8307C142.562 73.2124 143.718 71.7483 145.336 71.5941L280.116 57.1067C281.734 56.9526 283.198 58.1085 283.352 59.7267C283.506 61.345 282.35 62.8092 280.732 62.9633Z" fill="#1A237E"/>
<path d="M163.6 93.7876L147.879 95.483C146.261 95.6371 144.797 94.4812 144.643 92.8629C144.489 91.2446 145.644 89.7805 147.263 89.6264L162.983 87.931C164.601 87.7769 166.066 88.9328 166.22 90.5511C166.374 92.1694 165.218 93.6335 163.6 93.7876Z" fill="#1A237E"/>
<path d="M86.8475 46.6262C89.7841 46.6262 92.1647 44.2456 92.1647 41.309C92.1647 38.3724 89.7841 35.9918 86.8475 35.9918C83.9109 35.9918 81.5303 38.3724 81.5303 41.309C81.5303 44.2456 83.9109 46.6262 86.8475 46.6262Z" fill="#694AFF"/>
<path d="M329.674 15.5953C330.145 12.6965 328.176 9.96525 325.277 9.49481C322.379 9.02436 319.647 10.9929 319.177 13.8916C318.707 16.7903 320.675 19.5216 323.574 19.992C326.473 20.4625 329.204 18.494 329.674 15.5953Z" fill="#694AFF"/>
<path d="M252.606 129.082C251.604 128.234 251.065 126.924 251.142 125.614C251.373 117.908 250.14 110.202 247.443 103.035C246.98 101.802 247.057 100.415 247.751 99.2591C248.368 98.1802 249.446 97.4096 250.679 97.1784C256.844 93.4795 263.163 92.4007 269.482 94.096C271.563 93.7878 273.566 95.0207 274.26 97.1014C276.803 105.424 278.267 113.978 278.498 122.686C278.575 124.843 277.034 126.693 274.876 127.078L256.228 130.161C254.918 130.315 253.608 129.929 252.606 129.082Z" fill="#0086FF"/>
<path d="M254.3 106.58L270.021 103.959C270.56 103.882 270.946 103.343 270.869 102.804C270.792 102.264 270.252 101.879 269.713 101.956L253.992 104.576C253.453 104.653 253.068 105.192 253.145 105.732C253.222 106.348 253.761 106.657 254.3 106.58Z" fill="white"/>
<path d="M255.611 114.44L271.331 111.82C271.871 111.743 272.256 111.203 272.179 110.664C272.102 110.125 271.563 109.739 271.023 109.816L255.303 112.436C254.763 112.513 254.378 113.053 254.455 113.592C254.532 114.209 255.072 114.517 255.611 114.44Z" fill="white"/>
<path d="M256.843 122.3L272.564 119.68C273.103 119.603 273.489 119.064 273.412 118.524C273.335 117.985 272.795 117.599 272.256 117.676L256.535 120.297C255.996 120.374 255.61 120.913 255.688 121.452C255.842 122.069 256.304 122.377 256.843 122.3Z" fill="white"/>
<path d="M40.9969 149.194C43.7711 146.42 48.3177 146.497 51.0919 149.272C53.9431 152.123 53.8661 156.746 50.9378 159.521C48.0865 162.218 43.5399 162.141 40.8428 159.289C38.1457 156.515 38.2227 151.969 40.9969 149.194ZM47.9324 152.431C46.6994 151.506 45.3894 151.275 44.1564 152.508C43.0005 153.664 43.0005 155.128 44.1564 156.284C45.2353 157.363 46.6224 157.363 47.7783 156.361C49.0883 155.128 48.9342 153.818 47.9324 152.431Z" fill="#EC00FF"/>
<path d="M400.64 124.997C403.415 122.223 407.961 122.3 410.735 125.074C413.587 127.926 413.51 132.549 410.581 135.323C407.73 138.021 403.183 137.944 400.486 135.092C397.789 132.318 397.866 127.771 400.64 124.997ZM407.576 128.234C406.343 127.309 405.033 127.078 403.8 128.311C402.644 129.467 402.644 130.931 403.8 132.087C404.879 133.166 406.266 133.166 407.422 132.164C408.655 130.931 408.578 129.621 407.576 128.234Z" fill="#EC00FF"/>
<path d="M148.651 177.938C145.877 175.164 145.877 170.617 148.651 167.843C151.502 164.992 156.126 165.069 158.9 167.92C161.597 170.772 161.52 175.318 158.746 178.015C155.972 180.79 151.425 180.712 148.651 177.938ZM155.586 171.003C154.276 170.001 152.966 169.924 151.81 171.157C150.655 172.39 150.809 173.777 152.042 174.856C153.198 175.935 154.585 175.858 155.664 174.779C156.742 173.623 156.665 172.236 155.586 171.003Z" fill="#EC00FF"/>
<path d="M320.419 141.72C323.271 138.945 327.74 138.945 330.514 141.72C333.289 144.571 333.289 149.271 330.437 151.969C327.586 154.666 323.039 154.589 320.342 151.737C317.568 148.963 317.645 144.494 320.419 141.72ZM323.502 145.033C322.5 146.343 322.423 147.653 323.656 148.809C324.812 149.888 326.199 149.811 327.278 148.732C328.434 147.576 328.511 146.112 327.278 144.956C326.122 143.8 324.812 143.877 323.502 145.033Z" fill="#EC00FF"/>
<path d="M47.7016 86.2358C50.6299 89.6265 50.707 93.9419 48.2411 96.7931C46.6228 98.7197 46.1604 100.415 47.7016 102.573C48.164 103.189 47.8558 105.193 47.3934 105.424C46.6228 105.809 45.0045 105.732 44.311 105.193C41.6138 102.881 41.3826 98.2573 43.7715 95.2519C45.3898 93.1713 46.0834 91.3989 44.311 89.0871C43.9257 88.5476 44.388 86.6211 44.9274 86.3129C45.8522 85.7734 47.1622 86.2358 47.7016 86.2358Z" fill="#0086FF"/>
<path d="M341.842 167.997C341.071 168.691 339.684 168.46 339.53 167.458C339.299 166.456 339.376 165.3 339.607 164.298C339.838 163.374 341.226 163.219 341.919 163.913C342.536 164.607 342.459 167.381 341.842 167.997Z" fill="#4F59FF"/>
<path d="M337.681 169.385C337.989 170.001 338.297 170.309 338.22 170.541C338.066 171.08 337.835 172.005 337.604 172.005C336.448 172.159 335.215 172.159 334.059 171.928C333.828 171.851 333.597 171.003 333.52 170.463C333.52 170.232 333.828 169.693 334.059 169.693C335.292 169.539 336.525 169.462 337.681 169.385Z" fill="#4F59FF"/>
<path d="M348.085 171.619C347.083 172.698 344.154 172.775 343.692 171.927C343.461 171.388 343.461 170.463 343.769 170.001C344.232 169.23 347.237 169.23 347.699 170.001C348.085 170.463 348.008 171.234 348.085 171.619Z" fill="#4F59FF"/>
<path d="M339.838 173.469C340.532 173.623 341.687 173.7 341.764 173.931C341.996 175.241 342.073 176.628 341.764 177.784C341.533 178.555 340.454 178.555 339.761 177.861C339.067 177.245 339.067 174.547 339.838 173.469Z" fill="#4F59FF"/>
<path d="M28.8987 179.556C28.1281 180.25 26.741 180.019 26.5869 179.017C26.3557 178.015 26.4327 176.859 26.6639 175.858C26.8951 174.933 28.2822 174.779 28.9757 175.472C29.5922 176.166 29.5922 178.94 28.8987 179.556Z" fill="#4F59FF"/>
<path d="M24.7375 180.944C25.0457 181.56 25.3539 181.868 25.2769 182.1C25.1228 182.639 24.8916 183.564 24.6604 183.564C23.5045 183.718 22.2715 183.718 21.1156 183.487C20.8844 183.41 20.6532 182.562 20.5762 182.022C20.5762 181.791 20.8844 181.252 21.1156 181.252C22.3486 181.098 23.5815 181.021 24.7375 180.944Z" fill="#4F59FF"/>
<path d="M35.1412 183.178C34.1395 184.257 31.2111 184.334 30.7488 183.487C30.5176 182.947 30.5176 182.022 30.8258 181.56C31.2882 180.789 34.2936 180.789 34.7559 181.56C35.1412 182.022 35.0642 182.793 35.1412 183.178Z" fill="#4F59FF"/>
<path d="M26.8946 184.951C27.5882 185.105 28.7441 185.182 28.8211 185.413C29.0523 186.723 29.1294 188.11 28.8211 189.266C28.5899 190.037 27.5111 190.037 26.8175 189.343C26.124 188.804 26.124 186.107 26.8946 184.951Z" fill="#4F59FF"/>
<path d="M381.298 70.5154C380.759 70.5154 379.294 70.8237 378.601 70.2843C378.061 69.8219 377.907 67.9724 378.37 67.2018C379.757 65.1212 379.603 63.4258 378.061 61.4993C375.364 58.1086 375.441 53.6391 378.061 50.8649C379.063 49.786 380.142 49.2466 381.375 50.2484C382.608 51.2502 382.531 52.4832 381.606 53.562C379.988 55.5656 380.45 57.338 381.914 59.1875C384.689 62.5011 384.535 67.1248 381.298 70.5154Z" fill="#0086FF"/>
<path d="M381.838 78.5296C382.917 80.1479 382.994 83.8468 381.838 84.4633C381.067 84.9257 379.68 84.9257 378.909 84.4633C377.753 83.8468 377.676 79.9938 378.832 79.2232C379.603 78.6838 380.836 78.7608 381.838 78.5296Z" fill="#0086FF"/>
<path d="M263.01 166.841C261.931 164.529 260.39 162.603 258.617 160.908C256.845 159.212 254.841 157.825 252.529 156.746C252.915 155.899 253.223 155.128 253.608 154.203C253.762 154.28 253.916 154.357 254.071 154.435C259.234 156.978 263.164 160.831 265.63 166.071C265.784 166.456 266.015 166.61 266.4 166.61C268.404 166.61 270.407 166.841 272.334 167.304C272.719 167.381 272.873 167.304 273.105 166.995C276.649 162.449 281.273 159.521 286.898 158.211C287.053 158.133 287.284 158.133 287.515 158.056C287.515 158.211 287.592 158.288 287.592 158.365C287.746 159.135 287.9 159.906 288.054 160.754C285.588 161.293 283.277 162.141 281.119 163.451C278.961 164.761 277.189 166.302 275.648 168.151C276.726 168.845 277.882 169.538 278.884 170.309C279.269 170.617 279.655 171.08 279.886 171.465C280.502 172.39 280.502 173.392 279.886 174.316C275.571 180.943 271.255 187.648 267.017 194.275C266.786 194.66 266.477 194.969 265.938 194.892C265.398 194.814 265.244 194.429 265.09 194.044C262.393 186.646 259.773 179.171 257.076 171.773C256.614 170.617 256.845 169.693 257.846 168.845C259.079 167.766 260.544 167.304 262.085 166.918C262.547 166.995 262.778 166.918 263.01 166.841ZM267.017 169.076C267.325 170.54 267.556 171.85 267.864 173.314C266.94 173.083 266.169 172.929 265.398 172.775C265.013 172.698 264.936 172.544 264.859 172.159C264.705 171.234 264.474 170.309 264.243 169.461C262.701 169.538 260.544 170.309 259.927 171.003C260.004 171.08 260.081 171.157 260.158 171.234C260.39 171.388 260.621 171.619 260.852 171.773C263.549 173.623 266.631 174.47 269.868 174.624C272.334 174.779 274.8 174.547 277.112 173.546C277.42 173.392 277.728 173.237 278.114 173.006C276.958 171.85 275.648 171.157 274.26 170.617C273.952 171.157 273.644 171.696 273.336 172.159C272.488 171.773 271.717 171.311 270.87 170.926C271.101 170.54 271.255 170.155 271.563 169.616C269.945 169.461 268.481 169.307 267.017 169.076Z" fill="#9D2DFF"/>
<path d="M270.561 161.216C269.636 161.062 268.712 160.985 267.787 160.908C268.326 155.282 266.862 150.196 263.395 145.65C264.088 145.033 264.859 144.494 265.552 143.877C269.482 149.04 271.178 154.743 270.561 161.216Z" fill="#9D2DFF"/>
<path d="M280.194 153.433C279.654 154.127 279.115 154.82 278.653 155.514C278.19 156.207 277.805 156.978 277.343 157.826C276.495 157.517 275.57 157.132 274.646 156.747C275.57 154.666 276.957 152.894 278.576 151.275C279.038 152.046 279.654 152.739 280.194 153.433Z" fill="#9D2DFF"/>
<path d="M283.046 168.845C282.507 168.229 281.967 167.535 281.351 166.764C282.429 165.917 283.585 165.377 284.972 165.069C285.127 166.071 285.281 166.996 285.512 167.843C284.664 168.229 283.894 168.537 283.046 168.845Z" fill="#9D2DFF"/>
<path d="M255.458 162.526C256.691 163.066 257.692 163.836 258.463 164.838C257.769 165.454 257.076 165.994 256.382 166.533C255.689 166.071 254.995 165.531 254.225 164.992C254.61 164.221 254.995 163.374 255.458 162.526Z" fill="#9D2DFF"/>
<path d="M272.18 152.2C271.718 151.583 271.795 150.736 272.411 150.273C273.028 149.811 273.875 149.965 274.338 150.505C274.8 151.121 274.723 151.969 274.107 152.431C273.49 152.894 272.642 152.816 272.18 152.2Z" fill="#9D2DFF"/>
<path d="M265.168 155.359C265.63 155.976 265.553 156.824 264.937 157.286C264.32 157.748 263.472 157.671 263.01 157.055C262.548 156.438 262.625 155.591 263.241 155.128C263.858 154.666 264.705 154.82 265.168 155.359Z" fill="#9D2DFF"/>
<path d="M258.463 150.659C259.08 150.196 259.927 150.273 260.39 150.89C260.852 151.506 260.775 152.354 260.235 152.816C259.619 153.279 258.771 153.202 258.309 152.662C257.77 152.046 257.847 151.121 258.463 150.659Z" fill="#9D2DFF"/>
<path d="M275.031 144.571C275.648 144.109 276.496 144.186 276.958 144.802C277.42 145.419 277.343 146.266 276.727 146.729C276.11 147.191 275.263 147.114 274.8 146.498C274.338 145.958 274.415 145.11 275.031 144.571Z" fill="#9D2DFF"/>
<path d="M291.137 164.915C290.52 165.377 289.673 165.3 289.21 164.684C288.748 164.067 288.825 163.22 289.441 162.757C290.058 162.295 290.906 162.372 291.368 162.988C291.83 163.528 291.753 164.453 291.137 164.915Z" fill="#9D2DFF"/>
<path d="M282.737 157.363C282.121 157.825 281.273 157.748 280.811 157.132C280.349 156.515 280.426 155.668 281.042 155.205C281.659 154.743 282.506 154.82 282.969 155.436C283.508 156.053 283.354 156.901 282.737 157.363Z" fill="#9D2DFF"/>
<path d="M112.433 187.417C113.897 187.956 115.361 188.65 116.363 189.883C117.21 190.807 117.288 191.809 116.748 192.888C113.203 199.9 109.581 206.913 106.037 214.003C105.805 214.388 105.574 214.773 105.112 214.773C104.572 214.773 104.341 214.388 104.187 214.003C100.796 206.836 97.3287 199.746 93.861 192.58C93.3216 191.501 93.4757 190.576 94.2463 189.728C94.5545 189.343 94.9399 188.958 95.4022 188.65C96.5581 188.033 97.714 187.494 98.87 186.954C97.637 184.951 96.0187 183.101 94.0151 181.56C92.0886 180.019 89.8538 178.863 87.542 178.015C87.7732 177.167 88.0814 176.474 88.3126 175.703C88.3126 175.626 88.3897 175.549 88.4667 175.395C88.6979 175.472 88.852 175.549 89.0062 175.549C94.4775 177.553 98.6388 181.021 101.644 186.029C101.798 186.338 102.029 186.415 102.415 186.415C104.418 186.184 106.422 186.184 108.426 186.492C108.888 186.569 109.042 186.415 109.273 186.107C112.356 181.252 116.748 177.938 122.219 176.012C122.374 175.934 122.528 175.934 122.759 175.857C123.067 176.782 123.298 177.63 123.529 178.477C121.141 179.248 118.906 180.327 116.979 181.868C114.976 183.332 113.28 185.105 111.893 187.262C112.047 187.262 112.279 187.34 112.433 187.417ZM103.031 188.804C103.262 189.343 103.339 189.805 103.494 190.191C102.646 190.499 101.798 190.807 100.874 191.116C100.642 190.576 100.411 190.037 100.18 189.42C98.7158 189.805 97.3287 190.345 96.0958 191.347C96.4811 191.578 96.7122 191.809 97.0205 192.04C99.1782 193.35 101.567 193.89 104.11 194.044C107.347 194.275 110.506 193.813 113.357 192.271C113.589 192.117 113.82 191.963 114.128 191.809C114.205 191.732 114.282 191.655 114.359 191.578C113.82 190.884 111.816 189.805 110.275 189.497C109.967 190.345 109.581 191.193 109.273 192.117C109.196 192.503 108.965 192.58 108.657 192.657C107.886 192.734 107.038 192.811 106.114 192.888C106.576 191.501 106.961 190.268 107.501 188.804C106.037 188.881 104.572 188.881 103.031 188.804Z" fill="#3468FF"/>
<path d="M105.034 180.635C105.959 180.635 106.884 180.635 107.808 180.635C107.962 175.01 110.043 170.078 114.127 166.071C113.511 165.377 112.817 164.761 112.201 164.067C107.577 168.691 105.265 174.162 105.034 180.635Z" fill="#3468FF"/>
<path d="M96.4824 171.696C96.9448 172.467 97.4072 173.237 97.7925 174.008C98.1778 174.779 98.4089 175.549 98.7942 176.474C99.719 176.243 100.644 176.012 101.646 175.78C100.952 173.546 99.796 171.696 98.486 169.847C97.7154 170.463 97.0989 171.08 96.4824 171.696Z" fill="#3468FF"/>
<path d="M91.7035 186.646C92.32 186.03 92.9365 185.413 93.63 184.797C92.7053 183.795 91.6265 183.101 90.3164 182.639C90.0082 183.564 89.6999 184.488 89.4688 185.336C90.1623 185.798 90.8559 186.184 91.7035 186.646Z" fill="#3468FF"/>
<path d="M119.831 183.795C118.521 184.18 117.442 184.797 116.518 185.721C117.134 186.415 117.751 187.031 118.367 187.648C119.138 187.263 119.908 186.877 120.679 186.415C120.525 185.567 120.217 184.72 119.831 183.795Z" fill="#3468FF"/>
<path d="M104.572 171.465C105.112 170.926 105.112 170.001 104.572 169.461C104.033 168.922 103.108 168.922 102.569 169.461C102.029 170.001 102.029 170.926 102.569 171.465C103.185 172.004 104.033 172.004 104.572 171.465Z" fill="#3468FF"/>
<path d="M111.122 175.472C110.583 176.012 110.583 176.936 111.122 177.476C111.662 178.015 112.587 178.015 113.126 177.476C113.665 176.936 113.665 176.012 113.126 175.472C112.509 175.01 111.585 174.933 111.122 175.472Z" fill="#3468FF"/>
<path d="M118.367 171.696C117.827 171.157 116.98 171.08 116.44 171.619C115.901 172.159 115.824 173.006 116.363 173.546C116.903 174.085 117.75 174.162 118.29 173.623C118.906 173.083 118.906 172.236 118.367 171.696Z" fill="#3468FF"/>
<path d="M102.723 163.605C102.183 163.065 101.336 163.065 100.796 163.605C100.257 164.144 100.257 164.992 100.796 165.531C101.336 166.071 102.183 166.071 102.723 165.531C103.262 164.992 103.262 164.144 102.723 163.605Z" fill="#3468FF"/>
<path d="M84.1516 181.714C84.6911 182.254 85.5387 182.254 86.0782 181.791C86.6176 181.252 86.6176 180.404 86.0782 179.865C85.5387 179.325 84.6911 179.248 84.1516 179.788C83.6122 180.25 83.6122 181.175 84.1516 181.714Z" fill="#3468FF"/>
<path d="M93.3987 175.241C93.9381 175.781 94.7858 175.781 95.3252 175.241C95.8647 174.702 95.8647 173.854 95.3252 173.315C94.7858 172.775 93.9381 172.775 93.3987 173.315C92.8593 173.854 92.8593 174.702 93.3987 175.241Z" fill="#3468FF"/>
</svg>
