<svg width="68" height="11" viewBox="0 0 68 11" fill="none" xmlns="http://www.w3.org/2000/svg">
<path d="M5.88323 2.7951C5.60557 1.88962 5.24308 1.24638 4.7726 0.891591C4.30058 0.536805 3.60026 0.314677 2.65776 0.248348V0.169678H5.98041V2.7951H5.88323Z" fill="black"/>
<path d="M4.91607 6.09762C4.56591 5.42815 4.03373 5.06103 3.32107 4.99624L2.65623 4.92991V4.85124L3.32107 4.78491C4.00905 4.72012 4.54123 4.35145 4.91607 3.65576H5.01325V6.09608H4.91607V6.09762Z" fill="black"/>
<path d="M15.5706 10.2087V5.36661C15.5706 4.61847 15.2559 4.25134 14.6157 4.25134C14.2779 4.25134 13.9756 4.38246 13.6979 4.65858V4.57991C14.0481 4.00299 14.8456 3.51709 15.7032 3.51709C16.8509 3.51709 17.5635 4.12023 17.5635 5.36661V10.2087H15.5706Z" fill="black"/>
<path d="M23.8894 9.40792C23.2739 8.7909 22.9593 7.95176 22.9593 6.90128C22.9593 5.86469 23.2616 5.05176 23.8539 4.44708C24.4586 3.83006 25.1466 3.52926 25.9194 3.51538V3.59405C25.5693 3.63261 25.3271 3.88251 25.1944 4.31596C25.0741 4.74942 25.0139 5.60091 25.0139 6.84883C25.0139 8.68601 25.7513 9.77505 26.8619 9.77505C27.5021 9.77505 28.0821 9.53904 28.6266 9.07936V9.15803C28.3366 9.56526 27.9494 9.85372 27.4666 10.0496C26.9838 10.2455 26.5118 10.3381 26.0644 10.3381C25.2299 10.3396 24.5049 10.0234 23.8894 9.40792ZM25.6772 6.42926V6.35059C26.7524 6.35059 27.1874 5.96958 27.1874 4.88054C27.1874 4.19873 26.9221 3.66038 26.4022 3.59559V3.51692C27.1396 3.51692 27.7196 3.75293 28.1422 4.21261C28.5649 4.67229 28.77 5.18442 28.77 5.74745C28.77 5.98346 28.7454 6.20713 28.7099 6.42926H25.6772Z" fill="black"/>
<path d="M33.0214 3.59567C32.6466 3.63578 32.3813 3.89801 32.224 4.35615C32.0666 4.81583 31.9941 5.64264 31.9941 6.84891C31.9941 7.75439 32.1761 8.4763 32.5494 9.00077C32.9243 9.5129 33.3824 9.77513 33.9516 9.77513C34.5918 9.77513 35.1718 9.53912 35.7163 9.07944V9.15811C35.4263 9.56534 35.0391 9.8538 34.5563 10.0497C34.0735 10.2456 33.6014 10.3382 33.1541 10.3382C32.3196 10.3382 31.5715 10.0235 30.9066 9.40646C30.2541 8.7771 29.9271 7.93795 29.9271 6.89981C29.9271 6.20412 30.0844 5.58865 30.4115 5.06264C31.0763 3.99982 32.0419 3.5278 33.0214 3.51392V3.59567ZM33.5043 3.517C34.9897 3.517 35.7024 4.16024 35.7024 4.99939C35.7024 5.72131 35.2319 6.25966 34.4946 6.25966C33.9269 6.25966 33.5289 5.86631 33.4441 5.43285C33.7711 5.28785 34.0241 4.82971 34.0241 4.47492C34.0241 3.9628 33.856 3.67434 33.5043 3.60955V3.517Z" fill="black"/>
<path d="M18.3409 3.85484L18.4735 3.65894H22.5813L22.4487 3.85484H18.3409Z" fill="black"/>
<path d="M41.3049 10.1948V5.43448C41.3049 4.65858 40.9918 4.27911 40.3501 4.27911C40.0123 4.27911 39.7099 4.41485 39.4323 4.70023V4.61847C39.7824 4.01996 40.5799 3.51709 41.4376 3.51709C42.5853 3.51709 43.2979 4.14337 43.2979 5.43448V10.1948H41.3049Z" fill="black"/>
<path d="M2.05468 0.169678H0V10.1947H2.05468V0.169678Z" fill="black"/>
<path d="M9.44811 3.65735V10.3366C8.19094 10.3366 7.45514 9.75968 7.45514 8.55186V3.65735H9.44811Z" fill="black"/>
<path d="M13.3245 3.65735V10.3366C12.0689 10.3366 11.3316 9.75968 11.3316 8.55186V3.65735H13.3245Z" fill="black"/>
<path d="M21.3798 0.169678V10.3382C20.1226 10.3382 19.3868 9.76126 19.3868 8.55344V0.169678H21.3798Z" fill="black"/>
<path d="M39.0682 0.169678V10.3366C37.8111 10.3366 37.0753 9.75971 37.0753 8.5519V0.169678H39.0682Z" fill="black"/>
<path d="M8.45011 0.169678C9.10261 0.169678 9.55921 0.583081 9.55921 1.19702C9.55921 1.82329 9.10261 2.2367 8.45011 2.2367C7.79761 2.2367 7.34102 1.82329 7.34102 1.19702C7.34102 0.584624 7.79916 0.169678 8.45011 0.169678Z" fill="black"/>
<path d="M55.7771 5.69348C55.4562 5.69348 55.231 5.8971 55.231 6.19944C55.231 6.50641 55.4562 6.71002 55.7771 6.71002C56.0979 6.71002 56.3231 6.50795 56.3231 6.19944C56.3231 5.8971 56.0979 5.69348 55.7771 5.69348Z" fill="black"/>
<path d="M66.305 5.07808C67.0331 4.60451 67.5036 3.84558 67.5036 2.92468C67.5036 1.40835 66.2047 0.175851 64.5943 0.175851H62.1016H61.6666H61.0634H60.5976V3.65585H61.6666V1.19239H62.1016H64.5943C65.6062 1.19239 66.4346 1.96367 66.4346 2.92468C66.4346 3.89957 65.6062 4.67084 64.5943 4.67084H62.7371V5.68584H64.9938C66.0212 5.68584 66.8341 6.44323 66.8341 7.40579C66.8341 8.38068 66.0212 9.17972 64.9938 9.17972H60.6007H60.2906L56.3617 0.365584C56.263 0.135744 56.0486 0 55.8064 0C55.5781 0 55.3637 0.135744 55.2496 0.365584L51.2837 9.17972H46.3598V0.175851H45.2893V9.61318C45.2893 9.93865 45.5593 10.1947 45.9171 10.1947H50.8271H52.0256L55.8049 1.80016L59.5271 10.1947H60.1549H60.7395H64.9908C66.6027 10.1947 67.9 8.936 67.9 7.40579C67.9016 6.3368 67.2599 5.48377 66.305 5.07808Z" fill="black"/>
<path d="M62.7339 3.65576H61.6649V4.67076H62.7339V3.65576Z" fill="black"/>
</svg>
