<svg width="18" height="19" viewBox="0 0 18 19" fill="none" xmlns="http://www.w3.org/2000/svg">
<path d="M14.4475 1.75712L10.685 7.34332C10.6314 7.42377 10.6088 7.5209 10.6213 7.61676C10.6338 7.71261 10.6805 7.80069 10.7529 7.86472C10.8254 7.92875 10.9185 7.9644 11.0152 7.96506C11.1118 7.96572 11.2055 7.93135 11.2787 7.86832L14.9825 4.65585C15.0042 4.63643 15.0311 4.62375 15.0599 4.61936C15.0887 4.61496 15.1181 4.61905 15.1446 4.63111C15.1711 4.64317 15.1936 4.66269 15.2092 4.68728C15.2248 4.71187 15.2329 4.74047 15.2325 4.7696V14.827C15.2325 14.8578 15.223 14.8878 15.2053 14.913C15.1877 14.9383 15.1627 14.9574 15.1337 14.9679C15.1048 14.9784 15.0733 14.9798 15.0436 14.9718C15.0138 14.9638 14.9873 14.9469 14.9675 14.9232L3.7725 1.52213C3.59243 1.3095 3.36822 1.13864 3.11544 1.02142C2.86266 0.90421 2.58738 0.843455 2.30875 0.843384H1.9175C1.40895 0.843384 0.921224 1.0454 0.561623 1.405C0.202022 1.7646 0 2.25232 0 2.76086V16.9257C0 17.4343 0.202022 17.922 0.561623 18.2816C0.921224 18.6412 1.40895 18.8432 1.9175 18.8432C2.24539 18.8433 2.56784 18.7594 2.85407 18.5994C3.1403 18.4394 3.38076 18.2088 3.5525 17.9295L7.315 12.3433C7.36859 12.2628 7.39123 12.1657 7.37874 12.0698C7.36625 11.974 7.31947 11.8859 7.24705 11.8219C7.17464 11.7578 7.08149 11.7222 6.98483 11.7215C6.88816 11.7209 6.79453 11.7552 6.72125 11.8183L3.0175 15.0307C2.99579 15.0502 2.9689 15.0628 2.94011 15.0672C2.91132 15.0716 2.88188 15.0675 2.85537 15.0555C2.82886 15.0434 2.80643 15.0239 2.79083 14.9993C2.77523 14.9747 2.76712 14.9461 2.7675 14.917V4.8571C2.76751 4.8263 2.777 4.79626 2.79467 4.77105C2.81235 4.74584 2.83735 4.72668 2.86629 4.71616C2.89523 4.70565 2.92671 4.7043 2.95644 4.7123C2.98618 4.72029 3.01273 4.73724 3.0325 4.76085L14.2262 18.1645C14.4063 18.3771 14.6305 18.548 14.8833 18.6652C15.1361 18.7824 15.4114 18.8431 15.69 18.8432H16.0812C16.3332 18.8434 16.5826 18.7939 16.8154 18.6976C17.0482 18.6013 17.2597 18.4601 17.4379 18.282C17.6161 18.104 17.7575 17.8925 17.8539 17.6598C17.9504 17.4271 18 17.1776 18 16.9257V2.76086C18 2.25232 17.798 1.7646 17.4384 1.405C17.0788 1.0454 16.5911 0.843384 16.0825 0.843384C15.7546 0.843298 15.4322 0.927241 15.1459 1.0872C14.8597 1.24717 14.6192 1.47781 14.4475 1.75712Z" fill="black"/>
</svg>
