<svg width="26" height="27" viewBox="0 0 26 27" fill="none" xmlns="http://www.w3.org/2000/svg">
<ellipse cx="12.9303" cy="13.6218" rx="12.9032" ry="13.3195" fill="white" fill-opacity="0.83"/>
<path d="M17.0208 7.15647L14.1924 11.3559C14.1521 11.4164 14.1351 11.4894 14.1444 11.5614C14.1538 11.6335 14.189 11.6997 14.2434 11.7478C14.2979 11.796 14.3679 11.8228 14.4406 11.8233C14.5132 11.8238 14.5836 11.7979 14.6387 11.7505L17.423 9.33558C17.4393 9.32098 17.4595 9.31145 17.4811 9.30814C17.5028 9.30484 17.5249 9.30791 17.5448 9.31698C17.5648 9.32605 17.5816 9.34072 17.5934 9.35921C17.6051 9.37769 17.6112 9.39919 17.6109 9.42109V16.9817C17.6109 17.0048 17.6037 17.0274 17.5905 17.0464C17.5772 17.0653 17.5584 17.0797 17.5366 17.0876C17.5149 17.0955 17.4912 17.0966 17.4689 17.0905C17.4465 17.0845 17.4265 17.0718 17.4117 17.0541L8.99597 6.97982C8.8606 6.81997 8.69205 6.69153 8.50203 6.60341C8.312 6.5153 8.10507 6.46963 7.89561 6.46957H7.60149C7.21919 6.46957 6.85255 6.62144 6.58223 6.89177C6.3119 7.16209 6.16003 7.52873 6.16003 7.91103V18.5594C6.16003 18.9417 6.3119 19.3083 6.58223 19.5787C6.85255 19.849 7.21919 20.0009 7.60149 20.0009C7.84798 20.0009 8.09038 19.9378 8.30555 19.8176C8.52072 19.6973 8.70148 19.5239 8.83058 19.314L11.659 15.1146C11.6993 15.0541 11.7163 14.9811 11.7069 14.909C11.6975 14.837 11.6624 14.7707 11.6079 14.7226C11.5535 14.6745 11.4835 14.6477 11.4108 14.6472C11.3381 14.6467 11.2677 14.6725 11.2127 14.7199L8.4284 17.1349C8.41209 17.1495 8.39187 17.159 8.37023 17.1623C8.34859 17.1656 8.32645 17.1625 8.30652 17.1535C8.28659 17.1444 8.26974 17.1297 8.25801 17.1112C8.24628 17.0927 8.24018 17.0712 8.24047 17.0494V9.48686C8.24048 9.46372 8.24761 9.44113 8.2609 9.42218C8.27418 9.40323 8.29298 9.38882 8.31474 9.38092C8.33649 9.37302 8.36015 9.372 8.3825 9.37801C8.40486 9.38402 8.42482 9.39676 8.43968 9.41451L16.8545 19.4906C16.9898 19.6505 17.1584 19.7789 17.3484 19.867C17.5384 19.9551 17.7454 20.0008 17.9548 20.0009H18.2489C18.4383 20.001 18.6258 19.9638 18.8008 19.8914C18.9758 19.819 19.1348 19.7129 19.2688 19.579C19.4028 19.4451 19.509 19.2862 19.5815 19.1112C19.654 18.9363 19.6913 18.7488 19.6913 18.5594V7.91103C19.6913 7.52873 19.5395 7.16209 19.2691 6.89177C18.9988 6.62144 18.6322 6.46957 18.2499 6.46957C18.0034 6.46951 17.761 6.53261 17.5458 6.65286C17.3306 6.77312 17.1499 6.9465 17.0208 7.15647Z" fill="black"/>
</svg>
