<svg width="32" height="32" viewBox="0 0 32 32" fill="none" xmlns="http://www.w3.org/2000/svg">
<ellipse cx="16" cy="16" rx="15.5" ry="16" fill="white" fill-opacity="0.83"/>
<path d="M20.9138 8.23356L17.5161 13.2781C17.4677 13.3507 17.4473 13.4384 17.4586 13.525C17.4699 13.6116 17.5121 13.6911 17.5775 13.7489C17.6429 13.8067 17.727 13.8389 17.8143 13.8395C17.9016 13.8401 17.9861 13.8091 18.0523 13.7522L21.3969 10.8512C21.4165 10.8337 21.4408 10.8222 21.4668 10.8182C21.4928 10.8143 21.5194 10.818 21.5433 10.8289C21.5672 10.8398 21.5875 10.8574 21.6016 10.8796C21.6157 10.9018 21.623 10.9276 21.6226 10.9539V20.0361C21.6226 20.0639 21.6141 20.091 21.5981 20.1138C21.5822 20.1366 21.5596 20.1539 21.5334 20.1634C21.5073 20.1729 21.4789 20.1741 21.452 20.1669C21.4252 20.1596 21.4012 20.1443 21.3833 20.123L11.274 8.02135C11.1114 7.82933 10.9089 7.67504 10.6806 7.56919C10.4524 7.46334 10.2038 7.40848 9.95217 7.40842H9.59886C9.13962 7.40842 8.6992 7.59085 8.37447 7.91558C8.04974 8.24031 7.86731 8.68073 7.86731 9.13997V21.9313C7.86731 22.3906 8.04974 22.831 8.37447 23.1557C8.6992 23.4804 9.13962 23.6629 9.59886 23.6629C9.89496 23.663 10.1861 23.5872 10.4446 23.4427C10.7031 23.2983 10.9202 23.09 11.0753 22.8377L14.4729 17.7932C14.5213 17.7206 14.5418 17.6328 14.5305 17.5463C14.5192 17.4597 14.477 17.3802 14.4116 17.3224C14.3462 17.2645 14.2621 17.2324 14.1748 17.2318C14.0875 17.2312 14.0029 17.2622 13.9368 17.3191L10.5922 20.2201C10.5726 20.2376 10.5483 20.2491 10.5223 20.253C10.4963 20.257 10.4697 20.2533 10.4458 20.2424C10.4218 20.2315 10.4016 20.2139 10.3875 20.1917C10.3734 20.1695 10.3661 20.1437 10.3664 20.1174V11.0329C10.3664 11.0051 10.375 10.978 10.391 10.9552C10.4069 10.9325 10.4295 10.9152 10.4556 10.9057C10.4818 10.8962 10.5102 10.895 10.5371 10.9022C10.5639 10.9094 10.5879 10.9247 10.6057 10.946L20.714 23.05C20.8766 23.242 21.0791 23.3963 21.3073 23.5021C21.5356 23.608 21.7842 23.6628 22.0358 23.6629H22.3891C22.6166 23.663 22.8419 23.6184 23.0521 23.5314C23.2623 23.4444 23.4533 23.3169 23.6142 23.1561C23.7751 22.9953 23.9028 22.8044 23.9899 22.5942C24.0769 22.3841 24.1218 22.1588 24.1218 21.9313V9.13997C24.1218 8.68073 23.9393 8.24031 23.6146 7.91558C23.2899 7.59085 22.8495 7.40842 22.3902 7.40842C22.0941 7.40834 21.8029 7.48414 21.5445 7.62859C21.286 7.77305 21.0689 7.98132 20.9138 8.23356Z" fill="black"/>
</svg>
