<svg width="24" height="24" viewBox="0 0 24 24" fill="none" xmlns="http://www.w3.org/2000/svg">
<path d="M12.8981 23.5C13.2193 23.3684 13.5714 23.284 13.8549 23.096C14.4225 22.7191 14.6711 22.1424 14.6936 21.4673C14.6976 21.3475 14.6948 21.2276 14.6948 21.1084C14.6959 20.6684 14.6486 20.2419 15.0216 19.8689C15.3225 19.5679 15.3704 19.1224 15.3704 18.692C15.3704 17.7226 15.6944 16.8967 16.3767 16.1827C19.4678 12.9517 18.1571 7.64404 13.9095 6.24202C11.4006 5.41387 8.6898 6.27297 7.12991 8.40019C5.60434 10.4807 5.53234 13.1537 6.93191 15.3231C7.1496 15.6601 7.42074 15.9667 7.69357 16.2626C8.32978 16.9518 8.62848 17.7642 8.62792 18.692C8.62792 19.1308 8.72749 19.5353 8.97669 19.8993C8.98906 19.9179 8.99469 19.9443 9.01156 19.9561C9.34402 20.1919 9.30014 20.5396 9.30801 20.8833C9.31701 21.2698 9.30464 21.6715 9.40477 22.0383C9.62528 22.8468 10.1929 23.3155 11.0187 23.4674C11.0468 23.4724 11.0732 23.4887 11.1002 23.5C11.6999 23.5 12.299 23.5 12.8981 23.5ZM12.0087 19.4565C11.5896 19.4565 11.1705 19.4577 10.7509 19.456C10.2412 19.4537 10.0134 19.1927 9.96954 18.6801C9.92454 18.1547 9.85423 17.6241 9.7226 17.115C9.51502 16.3121 8.98456 15.6989 8.44847 15.084C7.37968 13.8592 7.02247 12.4155 7.43649 10.8543C7.94895 8.92285 9.23376 7.73743 11.2099 7.36386C13.6991 6.89352 16.1236 8.54084 16.6073 11.0112C16.8684 12.3446 16.6372 13.588 15.8468 14.7019C15.5881 15.0665 15.2578 15.3788 14.9816 15.7321C14.2999 16.6036 14.0254 17.6118 14.0197 18.7055C14.0175 19.1887 13.7492 19.4526 13.2654 19.4554C12.8469 19.4582 12.4278 19.4565 12.0087 19.4565ZM10.6536 20.8186C11.5626 20.8186 12.4469 20.8186 13.3441 20.8186C13.3441 21.0628 13.3554 21.294 13.3413 21.523C13.3199 21.8718 13.0499 22.1379 12.6972 22.1469C12.2343 22.1587 11.7708 22.1587 11.3078 22.1475C10.9444 22.1385 10.6738 21.8673 10.6558 21.5072C10.6446 21.2845 10.6536 21.0605 10.6536 20.8186Z" fill="#1A237E"/>
<path d="M23.5 11.8198C23.3211 11.4316 23.0134 11.3089 22.596 11.3196C21.7669 11.3404 20.9366 11.3202 20.1068 11.3286C19.6073 11.3337 19.2844 11.7956 19.4611 12.24C19.5674 12.5078 19.775 12.6659 20.0624 12.6687C20.9894 12.6777 21.9159 12.6749 22.843 12.671C23.1771 12.6693 23.3582 12.4471 23.5 12.1798C23.5 12.0589 23.5 11.939 23.5 11.8198Z" fill="#1A237E"/>
<path d="M12.673 2.53667C12.673 2.11752 12.6742 1.69838 12.673 1.27924C12.6714 0.806086 12.4008 0.496652 11.9941 0.500027C11.5941 0.503403 11.3269 0.808336 11.3264 1.26799C11.3247 2.11415 11.3252 2.95975 11.3264 3.80591C11.3269 4.27906 11.5986 4.5885 12.0053 4.58512C12.4115 4.58174 12.6725 4.274 12.6736 3.79466C12.6742 3.37551 12.673 2.95637 12.673 2.53667Z" fill="#1A237E"/>
<path d="M2.55889 12.673C2.97797 12.673 3.39705 12.6742 3.8167 12.6725C4.27684 12.6708 4.58117 12.4047 4.58511 12.0047C4.58904 11.6041 4.28247 11.3267 3.82851 11.3256C2.96785 11.3234 2.10662 11.3234 1.24596 11.3256C0.806062 11.3267 0.503986 11.6007 0.500048 11.9929C0.49611 12.3934 0.802124 12.6697 1.25664 12.6719C1.69091 12.6747 2.12518 12.673 2.55889 12.673Z" fill="#1A237E"/>
<path d="M17.8016 6.96227C17.895 6.91107 18.0823 6.85368 18.2083 6.7316C18.8384 6.12342 19.4554 5.50174 20.0708 4.87837C20.3696 4.57568 20.3718 4.16779 20.0939 3.89662C19.8211 3.62994 19.4234 3.62994 19.1281 3.91968C18.498 4.53911 17.8759 5.16586 17.2548 5.79373C17.0394 6.01146 16.9815 6.27251 17.108 6.55663C17.2228 6.81374 17.4365 6.93582 17.8016 6.96227Z" fill="#1A237E"/>
<path d="M6.20286 6.96216C6.56569 6.93403 6.77776 6.81082 6.89195 6.55427C7.01008 6.28928 6.96789 6.03611 6.77101 5.82569C6.52069 5.55789 6.2563 5.30303 5.99754 5.04367C5.62234 4.66728 5.24826 4.28977 4.86912 3.91733C4.66605 3.7176 4.42135 3.64446 4.1474 3.74517C3.89483 3.838 3.71651 4.02872 3.72045 4.29484C3.72326 4.4805 3.78458 4.71229 3.90664 4.84169C4.52373 5.49432 5.16332 6.125 5.8091 6.74949C5.92948 6.86595 6.11342 6.91602 6.20286 6.96216Z" fill="#1A237E"/>
</svg>
