<svg width="24" height="24" viewBox="0 0 24 24" fill="none" xmlns="http://www.w3.org/2000/svg">
<path d="M12.9756 23.184H11.5973L11.5358 23.1715C11.5142 23.1671 11.4924 23.1624 11.4709 23.1577C11.4396 23.1508 11.4098 23.1446 11.3891 23.1415C11.2347 23.1184 11.0807 23.0988 10.9178 23.0782C10.5689 23.034 10.2082 22.988 9.84623 22.9055C7.124 22.2846 4.75156 20.6888 3.16578 18.4122C1.57844 16.1335 0.908442 13.3577 1.27911 10.596C1.66155 7.7464 2.95711 5.38173 5.13022 3.56773C7.60689 1.49996 10.5016 0.649067 13.7331 1.03862C14.8958 1.17862 16.04 1.51996 17.1342 2.05307C17.7693 2.36262 18.044 3.04218 17.7873 3.66929C17.5658 4.2104 17.0691 4.36529 16.8571 4.43151C14.1127 5.28796 12.5653 7.94262 13.178 10.744C13.6933 13.1 15.8222 14.84 18.2405 14.8808C19.2249 14.8971 20.1176 14.678 20.9709 14.21C21.6669 13.828 22.1853 14.1073 22.4322 14.3077C22.8631 14.6573 22.9913 15.2091 22.7753 15.7835L22.7538 15.8408C22.6449 16.1308 22.5322 16.4308 22.3889 16.7262C20.7565 20.0893 18.0809 22.1895 14.4365 22.9688C14.1007 23.0406 13.7669 23.082 13.4442 23.1222C13.2976 23.1404 13.1589 23.1575 13.0198 23.1775L12.9756 23.184ZM11.726 21.9248H12.8864C13.0222 21.906 13.1576 21.8891 13.2891 21.8728C13.5987 21.8344 13.8911 21.798 14.1733 21.7377C17.4647 21.034 19.7816 19.2148 21.2565 16.1766C21.3745 15.9337 21.472 15.6737 21.5753 15.3984L21.5971 15.3406C21.6036 15.3235 21.6082 15.3086 21.6118 15.2962C21.6018 15.3006 21.59 15.3066 21.5767 15.314C20.5409 15.8822 19.4113 16.1602 18.2193 16.14C15.2242 16.0893 12.5869 13.9331 11.9482 11.0131C11.5851 9.3524 11.8424 7.65284 12.6731 6.22707C13.5036 4.80151 14.8565 3.73707 16.4825 3.22973C16.5345 3.21351 16.57 3.20084 16.5945 3.19084C16.5909 3.18907 16.5871 3.18707 16.5831 3.18507C15.6153 2.71373 14.6058 2.41218 13.5827 2.28884C10.7093 1.94262 8.13711 2.69818 5.93733 4.53462C4.01378 6.1404 2.86644 8.23618 2.52733 10.7637C1.84533 15.8422 5.11222 20.5344 10.126 21.678C10.428 21.7468 10.7429 21.7868 11.0764 21.8293C11.2391 21.85 11.4071 21.8713 11.5751 21.8964C11.6313 21.9048 11.6813 21.9153 11.726 21.9248Z" fill="#1A237E"/>
</svg>
