<svg width="24" height="24" viewBox="0 0 24 24" fill="none" xmlns="http://www.w3.org/2000/svg">
<path d="M11.7968 0C11.1862 0.197136 10.9563 0.627393 10.9837 1.25244C11.0095 1.85245 10.9821 2.45403 10.9978 3.05405C11.0103 3.51403 11.3496 3.89344 11.7859 3.97636C12.2417 4.06319 12.7046 3.8379 12.8821 3.41233C12.9486 3.25275 12.972 3.06578 12.9752 2.89055C12.9869 2.34451 12.9595 1.79769 12.9845 1.25244C13.0127 0.627393 12.782 0.197136 12.1714 0C12.0463 0 11.9219 0 11.7968 0Z" fill="white"/>
<path d="M23.97 11.8055C23.7729 11.1945 23.3429 10.9645 22.7182 10.9919C22.1185 11.0177 21.5173 10.9903 20.9176 11.006C20.4578 11.0185 20.0786 11.358 19.9957 11.7945C19.909 12.2506 20.1341 12.7137 20.5595 12.8913C20.719 12.9578 20.9058 12.9813 21.081 12.9844C21.6267 12.9961 22.1732 12.9688 22.7182 12.9938C23.3429 13.0219 23.7729 12.7912 23.97 12.1802C23.97 12.055 23.97 11.9299 23.97 11.8055Z" fill="white"/>
<path d="M11.9861 18.4894C15.5546 18.484 18.4835 15.552 18.478 11.9902C18.4725 8.41985 15.5421 5.4894 11.9822 5.49488C8.41365 5.50036 5.48472 8.43237 5.49019 11.9941C5.49645 15.5653 8.42616 18.4957 11.9861 18.4894ZM11.9923 7.49597C14.4678 7.50301 16.4897 9.53539 16.478 12.0066C16.467 14.4755 14.4529 16.486 11.9876 16.4891C9.51532 16.4923 7.4879 14.4638 7.49024 11.9902C7.49181 9.51505 9.52157 7.48971 11.9923 7.49597Z" fill="white"/>
<path d="M19.7478 3.22541C19.4647 3.22228 19.2294 3.33414 19.0339 3.52815C18.5679 3.98892 18.0988 4.44734 17.6453 4.92062C17.2442 5.33914 17.2481 5.94229 17.6312 6.33108C18.0151 6.72066 18.6234 6.73552 19.0402 6.33656C19.5359 5.86171 20.0214 5.37513 20.4929 4.87603C20.7814 4.57016 20.8283 4.19309 20.6547 3.80977C20.482 3.42724 20.1676 3.23714 19.7478 3.22541Z" fill="white"/>
<path d="M3.22207 4.22511C3.21895 4.5083 3.33153 4.74377 3.52466 4.93934C3.98518 5.40558 4.44335 5.87495 4.91638 6.32868C5.33468 6.72999 5.9375 6.7253 6.32609 6.34198C6.71546 5.95787 6.72953 5.34926 6.33078 4.9323C5.85619 4.43633 5.36987 3.95053 4.87103 3.47959C4.56532 3.19093 4.18846 3.14399 3.80535 3.31844C3.42301 3.49054 3.23302 3.80502 3.22207 4.22511Z" fill="white"/>
<path d="M19.6385 20.7658C20.1662 20.7463 20.4735 20.5601 20.6494 20.1885C20.8207 19.8271 20.8027 19.4516 20.5306 19.159C20.0216 18.6106 19.493 18.0779 18.9418 17.5718C18.5774 17.2369 17.9957 17.2956 17.6423 17.643C17.2834 17.9958 17.2224 18.5887 17.5641 18.9603C18.0708 19.5111 18.6064 20.0368 19.1537 20.5468C19.3015 20.6821 19.5384 20.7228 19.6385 20.7658Z" fill="white"/>
<path d="M3.2174 19.6407C3.23147 20.1688 3.41443 20.4793 3.78426 20.6577C4.15331 20.8361 4.5333 20.8149 4.83276 20.5349C5.37382 20.0295 5.90159 19.5069 6.40278 18.9617C6.74524 18.5893 6.68582 17.9979 6.32772 17.6443C5.96962 17.2899 5.38243 17.2383 5.00947 17.5833C4.46606 18.0863 3.94533 18.6159 3.44102 19.158C3.30419 19.3059 3.26118 19.5414 3.2174 19.6407Z" fill="white"/>
<path d="M2.00871 12.9843C2.35117 12.9843 2.69442 12.996 3.0361 12.982C3.58341 12.9593 3.98451 12.5353 3.98607 11.9978C3.98842 11.4588 3.58966 11.02 3.04548 11.0067C2.34492 10.9895 1.64357 10.9895 0.943796 11.0067C0.405084 11.02 -0.00383787 11.4698 7.15083e-05 12.0002C0.00398089 12.5306 0.414466 12.9601 0.957869 12.982C1.30737 12.996 1.65843 12.9843 2.00871 12.9843Z" fill="white"/>
<path d="M10.9916 21.9946C10.9916 22.3295 10.9823 22.6651 10.994 22.9999C11.0135 23.5608 11.4373 23.9785 11.976 23.9832C12.5226 23.9879 12.9636 23.5655 12.9753 22.9944C12.9886 22.3248 12.9886 21.6544 12.9761 20.9847C12.9651 20.4058 12.5382 19.9936 11.9831 19.9951C11.4287 19.9967 11.012 20.4097 10.994 20.9902C10.9838 21.325 10.9924 21.6598 10.9924 21.9954C10.9909 21.9946 10.9909 21.9946 10.9916 21.9946Z" fill="white"/>
</svg>
