<svg width="27" height="25" viewBox="0 0 27 25" fill="none" xmlns="http://www.w3.org/2000/svg">
<path fill-rule="evenodd" clip-rule="evenodd" d="M11.59 19.99C12.286 22.645 14.784 24.671 16.045 24.588C16.089 24.585 20.83 23.674 23.425 19.204C25.445 15.726 24.757 12.368 22.01 12.295C21.022 12.369 10.263 14.931 11.59 19.99ZM13.976 2.50794e-05C12.187 2.50794e-05 10.489 0.384025 8.95296 1.06903C8.68421 1.18167 8.42241 1.31023 8.16896 1.45403C7.99496 1.54703 7.82096 1.63902 7.65296 1.73902L7.69296 1.75203C7.18396 2.10502 6.74596 2.51603 6.38696 2.99203C2.83396 7.69603 14.742 11.115 21.108 11.127C24.038 13.234 24.86 5.19303 21.998 2.96102C19.7651 1.04483 16.9183 -0.00591873 13.976 2.50794e-05Z" fill="#0E3CA5"/>
<path fill-rule="evenodd" clip-rule="evenodd" d="M9.50063 2.75801C7.89063 5.12301 2.52663 6.79001 1.64463 6.53001L1.64062 6.52001L1.75063 6.30701C2.67219 4.5778 3.98091 3.08496 5.57463 1.94501C5.90463 1.70801 6.24663 1.48701 6.59963 1.28101C7.34863 0.856007 8.11863 0.830007 8.37163 0.820007C10.7596 0.864007 9.51262 2.73901 9.49962 2.75801" fill="#5493F7"/>
<mask id="mask0_701_3" style="mask-type:alpha" maskUnits="userSpaceOnUse" x="0" y="8" width="9" height="17">
<path d="M0 8.19702H8.197V24.59H0V8.19702Z" fill="white"/>
</mask>
<g mask="url(#mask0_701_3)">
<path fill-rule="evenodd" clip-rule="evenodd" d="M8.14902 20.481C8.26902 21.258 8.14602 24.329 7.98402 24.588C7.84602 24.596 7.55602 24.614 6.71902 24.15C5.09494 23.235 3.68083 21.9895 2.56802 20.494C1.75395 19.3986 1.11624 18.1826 0.678017 16.89C0.226909 15.553 -0.00212396 14.1511 1.67384e-05 12.74C-0.00248116 11.1888 0.274615 9.64991 0.818017 8.19702H0.820017C1.78002 9.45602 2.89002 10.595 3.83302 11.867C4.73202 13.077 5.96802 15.05 6.21902 15.472C7.78102 18.089 8.03002 19.704 8.14902 20.481Z" fill="#5493F7"/>
</g>
<path fill-rule="evenodd" clip-rule="evenodd" d="M26.2296 12.885C26.2296 14.564 25.9096 16.169 25.3306 17.641C23.8106 19.281 13.5586 15.245 13.4576 15.201C12.0556 14.585 7.78758 12.709 7.40258 9.76304C6.84858 5.52504 15.4206 2.57105 19.1876 2.45905C19.6386 2.46405 21.0136 2.48005 21.8146 3.13405C23.2035 4.35011 24.3161 5.84936 25.0776 7.53106C25.8392 9.21276 26.2319 11.038 26.2296 12.884V12.885ZM17.2646 23.368C17.8776 21.198 23.2376 18.974 24.4206 18.854C24.5666 18.839 24.6286 18.942 24.5646 19.06C23.3306 21.304 21.5036 23.152 19.2926 24.35C18.1746 24.892 16.9446 24.497 17.2646 23.368Z" fill="#5493F7"/>
</svg>
