<svg width="24" height="25" viewBox="0 0 24 25" fill="none" xmlns="http://www.w3.org/2000/svg">
<path d="M12.9371 24.5691C13.2723 24.4327 13.6397 24.3452 13.9356 24.1505C14.5279 23.76 14.7873 23.1625 14.8108 22.4631C14.8149 22.3389 14.812 22.2147 14.812 22.0912C14.8131 21.6353 14.7638 21.1935 15.153 20.807C15.467 20.4952 15.5169 20.0335 15.5169 19.5876C15.5169 18.5833 15.855 17.7276 16.567 16.9879C19.7925 13.6403 18.4248 8.14126 13.9925 6.68868C11.3746 5.83065 8.54591 6.72074 6.9182 8.92467C5.32631 11.0802 5.25117 13.8496 6.71159 16.0972C6.93875 16.4464 7.22167 16.7641 7.50636 17.0707C8.17024 17.7847 8.48193 18.6264 8.48134 19.5876C8.48134 20.0423 8.58524 20.4614 8.84527 20.8385C8.85818 20.8578 8.86405 20.8852 8.88166 20.8974C9.22857 21.1416 9.18278 21.5019 9.191 21.858C9.20039 22.2585 9.18748 22.6746 9.29196 23.0547C9.52206 23.8923 10.1143 24.3779 10.976 24.5353C11.0054 24.5405 11.033 24.5574 11.0611 24.5691C11.6869 24.5691 12.312 24.5691 12.9371 24.5691ZM12.0091 20.3798C11.5718 20.3798 11.1345 20.3809 10.6966 20.3792C10.1648 20.3769 9.92708 20.1064 9.88129 19.5754C9.83434 19.031 9.76096 18.4813 9.62361 17.9538C9.40701 17.122 8.85349 16.4866 8.29409 15.8495C7.17882 14.5805 6.80609 13.0848 7.23811 11.4673C7.77285 9.46619 9.11352 8.23802 11.1756 7.85098C13.773 7.36367 16.3029 9.0704 16.8077 11.6299C17.0801 13.0114 16.8388 14.2996 16.0141 15.4537C15.7441 15.8314 15.3995 16.1549 15.1113 16.521C14.3999 17.4239 14.1134 18.4685 14.1076 19.6016C14.1052 20.1023 13.8252 20.3757 13.3204 20.3786C12.8837 20.3815 12.4464 20.3798 12.0091 20.3798ZM10.5951 21.791C11.5436 21.791 12.4664 21.791 13.4026 21.791C13.4026 22.044 13.4143 22.2835 13.3997 22.5208C13.3774 22.8822 13.0956 23.1579 12.7276 23.1672C12.2445 23.1794 11.7608 23.1794 11.2777 23.1678C10.8985 23.1585 10.6162 22.8775 10.5974 22.5044C10.5857 22.2736 10.5951 22.0416 10.5951 21.791Z" fill="#1A237E"/>
<path d="M24 12.4675C23.8133 12.0653 23.4923 11.9382 23.0567 11.9493C22.1915 11.9708 21.3251 11.9498 20.4593 11.9586C19.9381 11.9638 19.6012 12.4424 19.7855 12.9029C19.8964 13.1803 20.113 13.3441 20.4129 13.3471C21.3803 13.3564 22.3471 13.3535 23.3144 13.3494C23.6631 13.3476 23.8521 13.1174 24 12.8405C24 12.7152 24 12.591 24 12.4675Z" fill="#1A237E"/>
<path d="M12.7023 2.84962C12.7023 2.41536 12.7035 1.9811 12.7023 1.54684C12.7006 1.05663 12.4182 0.736033 11.9938 0.73953C11.5765 0.743028 11.2977 1.05896 11.2971 1.53519C11.2953 2.41186 11.2959 3.28796 11.2971 4.16464C11.2977 4.65486 11.5812 4.97545 12.0056 4.97195C12.4294 4.96846 12.7018 4.64961 12.7029 4.15298C12.7035 3.71872 12.7023 3.28446 12.7023 2.84962Z" fill="#1A237E"/>
<path d="M2.14839 13.3516C2.58569 13.3516 3.02299 13.3528 3.46088 13.3511C3.94104 13.3493 4.25859 13.0736 4.2627 12.6592C4.26681 12.2441 3.94691 11.9568 3.47321 11.9556C2.57513 11.9533 1.67646 11.9533 0.778374 11.9556C0.319354 11.9568 0.00414419 12.2406 3.52859e-05 12.6469C-0.00407362 13.0619 0.315245 13.3481 0.789527 13.3505C1.24268 13.3534 1.69583 13.3516 2.14839 13.3516Z" fill="#1A237E"/>
<path d="M18.0539 7.43474C18.1513 7.3817 18.3468 7.32224 18.4783 7.19575C19.1357 6.56564 19.7796 5.92154 20.4218 5.27568C20.7334 4.96208 20.7358 4.53948 20.4458 4.25853C20.1611 3.98223 19.7461 3.98223 19.438 4.28242C18.7805 4.9242 18.1313 5.57354 17.4833 6.22406C17.2585 6.44964 17.198 6.72011 17.3301 7.01447C17.4499 7.28085 17.6729 7.40734 18.0539 7.43474Z" fill="#1A237E"/>
<path d="M5.95086 7.43478C6.32946 7.40564 6.55075 7.27798 6.66991 7.01218C6.79318 6.73764 6.74915 6.47533 6.54371 6.25733C6.2825 5.97987 6.00662 5.71582 5.73661 5.4471C5.3451 5.05714 4.95475 4.66602 4.55913 4.28014C4.34723 4.07321 4.09189 3.99743 3.80603 4.10177C3.54248 4.19795 3.35641 4.39555 3.36052 4.67126C3.36345 4.86362 3.42743 5.10377 3.55481 5.23784C4.19872 5.914 4.86612 6.56743 5.53997 7.21445C5.66559 7.33511 5.85753 7.38698 5.95086 7.43478Z" fill="#1A237E"/>
</svg>
