<svg width="20" height="20" viewBox="0 0 20 20" fill="none" xmlns="http://www.w3.org/2000/svg">
<ellipse cx="10" cy="9.95" rx="9" ry="9.45" fill="#FFFFFF"/>
<path d="M14.0229 4.05617L11.3597 8.01026C11.3218 8.06721 11.3057 8.13596 11.3146 8.20381C11.3234 8.27165 11.3565 8.33401 11.4078 8.37933C11.459 8.42465 11.525 8.44988 11.5934 8.45035C11.6618 8.45081 11.7281 8.42649 11.78 8.38187L14.4016 6.10798C14.4169 6.09423 14.436 6.08526 14.4563 6.08215C14.4767 6.07904 14.4976 6.08193 14.5163 6.09047C14.5351 6.09901 14.551 6.11282 14.562 6.13023C14.5731 6.14764 14.5788 6.16788 14.5785 6.18849V13.3075C14.5785 13.3292 14.5718 13.3505 14.5593 13.3684C14.5468 13.3862 14.5291 13.3998 14.5086 13.4072C14.4881 13.4146 14.4658 13.4156 14.4448 13.4099C14.4237 13.4043 14.4049 13.3923 14.391 13.3756L6.46684 3.88983C6.33939 3.73932 6.18068 3.61838 6.00176 3.53542C5.82283 3.45245 5.62799 3.40944 5.43076 3.40939H5.15383C4.79386 3.40939 4.44864 3.55239 4.1941 3.80692C3.93957 4.06146 3.79657 4.40668 3.79657 4.76665V14.793C3.79657 15.153 3.93957 15.4982 4.1941 15.7527C4.44864 16.0073 4.79386 16.1503 5.15383 16.1503V16.1503C5.38592 16.1503 5.61415 16.0909 5.81675 15.9777C6.01935 15.8644 6.18956 15.7012 6.31112 15.5035L8.97432 11.5494C9.01225 11.4924 9.02827 11.4237 9.01943 11.3558C9.01059 11.288 8.97748 11.2256 8.92622 11.1803C8.87496 11.135 8.80903 11.1098 8.74061 11.1093C8.67219 11.1088 8.60592 11.1332 8.55404 11.1778L5.93243 13.4517C5.91707 13.4654 5.89804 13.4744 5.87766 13.4775C5.85728 13.4806 5.83644 13.4777 5.81767 13.4692C5.79891 13.4606 5.78303 13.4468 5.77199 13.4294C5.76095 13.412 5.75521 13.3918 5.75548 13.3712V6.25043C5.75549 6.22864 5.7622 6.20737 5.77471 6.18952C5.78722 6.17168 5.80492 6.15811 5.82541 6.15067C5.84589 6.14323 5.86817 6.14228 5.88922 6.14794C5.91026 6.15359 5.92906 6.16559 5.94305 6.1823L13.8663 15.6698C13.9937 15.8203 14.1524 15.9413 14.3314 16.0242C14.5103 16.1072 14.7051 16.1502 14.9024 16.1503H15.1793C15.3576 16.1504 15.5342 16.1154 15.699 16.0472C15.8637 15.979 16.0135 15.8791 16.1396 15.753C16.2657 15.627 16.3658 15.4773 16.434 15.3126C16.5023 15.1479 16.5374 14.9713 16.5374 14.793V4.76665C16.5374 4.40668 16.3944 4.06146 16.1399 3.80692C15.8854 3.55239 15.5401 3.40939 15.1802 3.40939C14.9481 3.40933 14.7199 3.46875 14.5173 3.58198C14.3147 3.6952 14.1444 3.85846 14.0229 4.05617V4.05617Z" fill="black"/>
</svg>
