<svg width="20" height="20" viewBox="0 0 20 20" fill="none" xmlns="http://www.w3.org/2000/svg">
<path d="M16.2214 19C11.7219 19 7.22211 19 2.72255 19C2.69004 18.9891 2.65832 18.9738 2.62501 18.9681C2.01977 18.8618 1.5537 18.5452 1.25752 18.0099C1.13877 17.7955 1.08406 17.5458 1 17.3124C1 13.9601 1 10.608 1 7.25573C1.0109 7.22281 1.02498 7.19067 1.03231 7.15716C1.20399 6.35429 1.6885 5.84496 2.47494 5.62124C2.57922 5.59169 2.68806 5.5788 2.8068 5.55579C2.7279 5.33841 2.65297 5.13611 2.581 4.93262C2.3334 4.2315 2.62997 3.5643 3.32561 3.30845C5.36119 2.55973 7.39915 1.81716 9.43889 1.08014C10.1052 0.83936 10.7703 1.15709 11.0237 1.81934C11.1553 2.16345 11.283 2.50935 11.3979 2.85921C11.4416 2.9917 11.4987 3.03831 11.6432 3.03752C12.7149 3.03058 13.7868 3.02939 14.8587 3.03593C15.5411 3.0401 16.0696 3.57243 16.0797 4.25352C16.0852 4.63432 16.0809 5.01513 16.0809 5.39593C16.0809 5.45147 16.0809 5.5068 16.0809 5.55896C17.2485 5.69165 17.9436 6.46834 17.944 7.61412C17.9442 8.18831 17.944 8.76249 17.944 9.33647C17.944 9.4283 17.944 9.52013 17.944 9.60799C17.9852 9.62247 18.0066 9.63199 18.0288 9.63774C18.6337 9.79403 18.9965 10.2526 18.9979 10.8726C19 11.7982 19.0016 12.7239 18.9971 13.6495C18.9943 14.2191 18.6291 14.6872 18.082 14.8411C18.0386 14.8534 17.9949 14.8649 17.944 14.879C17.944 14.9514 17.944 15.0152 17.944 15.0791C17.9436 15.7528 17.9509 16.4266 17.941 17.1003C17.9287 17.9373 17.3719 18.6668 16.5753 18.9088C16.4587 18.9443 16.3394 18.9699 16.2214 19ZM16.8893 14.8827C16.2105 14.8827 15.5603 14.8901 14.9103 14.8812C13.5009 14.8617 12.3392 13.7001 12.32 12.3004C12.2998 10.8115 13.4637 9.62148 14.956 9.60958C15.5359 9.60502 16.116 9.60879 16.696 9.60859C16.7577 9.60859 16.8193 9.60859 16.8893 9.60859C16.8893 8.89636 16.8915 8.21111 16.8885 7.52606C16.8862 6.99393 16.5135 6.62105 15.9782 6.62086C11.643 6.61947 7.30756 6.61947 2.97234 6.62066C2.42598 6.62086 2.05546 6.99214 2.05526 7.53697C2.05407 10.6955 2.05407 13.8542 2.05526 17.0127C2.05546 17.5666 2.42796 17.9415 2.98066 17.9417C7.31014 17.9429 11.6396 17.9429 15.9691 17.9415C16.5119 17.9413 16.8866 17.5656 16.8887 17.0244C16.8913 16.3621 16.8893 15.7001 16.8893 15.0378C16.8893 14.9924 16.8893 14.9472 16.8893 14.8827ZM10.3344 3.01649C10.2404 2.75251 10.151 2.49388 10.0564 2.23703C9.98882 2.05337 9.923 2.02442 9.73289 2.09364C7.73279 2.82113 5.7329 3.54903 3.7334 4.27791C3.54665 4.34594 3.51474 4.41417 3.58075 4.59842C3.6775 4.86816 3.78772 5.13353 3.87336 5.40644C3.91519 5.53973 3.98259 5.56829 4.11205 5.56789C5.63497 5.56353 7.15788 5.56511 8.6808 5.56511C8.74245 5.56511 8.80391 5.56511 8.85843 5.56511C8.86675 5.53239 8.86933 5.52683 8.86933 5.52128C8.87131 5.09367 8.86834 4.66606 8.87568 4.23844C8.88539 3.67001 9.27851 3.18706 9.8332 3.06767C9.9908 3.03395 10.1551 3.03375 10.3344 3.01649ZM16.2916 10.6637C15.87 10.6637 15.4483 10.6625 15.0266 10.6645C14.9216 10.6651 14.8147 10.6659 14.7118 10.6838C13.8784 10.8293 13.3096 11.5537 13.3786 12.3768C13.4472 13.1973 14.129 13.8216 14.9751 13.8268C15.8771 13.8324 16.7789 13.8286 17.6809 13.8278C17.8893 13.8276 17.9434 13.7748 17.9436 13.5709C17.9446 12.6864 17.9446 11.8016 17.9436 10.917C17.9434 10.7103 17.8944 10.6643 17.6799 10.6639C17.217 10.6629 16.7543 10.6637 16.2916 10.6637ZM9.92954 5.55301C11.639 5.55301 13.3267 5.55301 15.0262 5.55301C15.0262 5.15555 15.0264 4.76998 15.0262 4.38442C15.026 4.12341 14.9919 4.0883 14.7352 4.0883C13.2311 4.0881 11.727 4.0881 10.2229 4.0883C10.1879 4.0883 10.1528 4.08791 10.1177 4.08929C9.99814 4.09405 9.93133 4.15812 9.93054 4.27633C9.92796 4.69719 9.92954 5.11806 9.92954 5.55301Z" fill="white"/>
<path d="M14.9497 12.7729C14.6664 12.7691 14.4283 12.5267 14.4291 12.2429C14.4299 11.9492 14.6747 11.7126 14.9705 11.7197C15.2569 11.7266 15.4883 11.9684 15.4824 12.2548C15.4764 12.5388 15.2318 12.7766 14.9497 12.7729Z" fill="black"/>
</svg>
