<svg width="51" height="51" viewBox="0 0 51 51" fill="none" xmlns="http://www.w3.org/2000/svg">
<path d="M25.2425 50.9402C39.1836 50.9402 50.485 39.6574 50.485 25.7393C50.485 11.8212 39.1836 0.5383 25.2425 0.5383C11.3015 0.5383 0 11.8212 0 25.7393C0 39.6574 11.3015 50.9402 25.2425 50.9402Z" fill="#00E676"/>
<path fill-rule="evenodd" clip-rule="evenodd" d="M36.1499 14.7927C33.2578 11.8998 29.4094 10.3084 25.3048 10.3084C16.8565 10.3084 9.9794 17.1685 9.97371 25.6086C9.97371 28.3026 10.6796 30.9398 12.0175 33.2587L9.84277 41.1873L17.9666 39.0616C20.2039 40.2779 22.7259 40.9201 25.2934 40.9258H25.2991C33.7474 40.9258 40.6245 34.0601 40.6302 25.6256C40.6359 21.5278 39.0419 17.68 36.1499 14.7927ZM25.3048 38.3284C23.0162 38.3284 20.7732 37.7146 18.8149 36.5552L18.348 36.2823L13.5261 37.5441L14.8127 32.8495L14.511 32.372C13.2358 30.3487 12.564 28.0071 12.564 25.6029C12.564 18.5894 18.2797 12.8888 25.3105 12.8888C28.7149 12.8888 31.9143 14.213 34.3167 16.6172C36.7192 19.0213 38.0456 22.2155 38.0456 25.6143C38.0456 32.6221 32.3299 38.3284 25.3048 38.3284ZM32.2957 28.8028C31.9143 28.6095 30.0299 27.6888 29.677 27.5581C29.324 27.433 29.0678 27.3648 28.8174 27.7513C28.5612 28.1321 27.8268 28.996 27.6048 29.2518C27.3827 29.5075 27.1607 29.5416 26.7736 29.3484C26.3922 29.1551 25.1568 28.7516 23.6937 27.4501C22.5551 26.4384 21.7866 25.1823 21.5645 24.8015C21.3425 24.4207 21.5418 24.2104 21.7353 24.0229C21.9061 23.8524 22.1168 23.5739 22.3103 23.3522C22.5039 23.1306 22.5665 22.9714 22.6917 22.7157C22.817 22.4599 22.7544 22.2382 22.6576 22.045C22.5608 21.8517 21.798 19.9705 21.4792 19.2089C21.166 18.4643 20.8529 18.5666 20.6195 18.5553C20.3975 18.5439 20.1413 18.5439 19.8851 18.5439C19.6289 18.5439 19.2134 18.6405 18.8661 19.0213C18.5131 19.4021 17.5282 20.3285 17.5282 22.2098C17.5282 24.0911 18.9002 25.9098 19.0938 26.1656C19.2874 26.4213 21.7923 30.2805 25.635 31.9401C26.5516 32.3323 27.2632 32.571 27.8211 32.7472C28.7377 33.037 29.5745 32.9972 30.2349 32.9006C30.9693 32.7926 32.5007 31.9742 32.8195 31.0819C33.1383 30.1895 33.1383 29.4223 33.0415 29.2631C32.9334 29.0926 32.6772 28.996 32.2957 28.8028Z" fill="white"/>
</svg>
