<svg width="20" height="20" viewBox="0 0 20 20" fill="none" xmlns="http://www.w3.org/2000/svg">
<path d="M16.5403 19.5507C11.6509 19.5507 6.76124 19.5507 1.8718 19.5507C1.83647 19.5388 1.80201 19.5222 1.76582 19.516C1.10813 19.4005 0.601674 19.0567 0.279833 18.4753C0.150796 18.2424 0.091339 17.9712 0 17.7176C0 14.0766 0 10.4357 0 6.79465C0.0118482 6.75889 0.0271431 6.72399 0.0351138 6.68758C0.221669 5.81555 0.748161 5.26235 1.60274 5.01935C1.71605 4.98725 1.83432 4.97325 1.96336 4.94826C1.87762 4.71216 1.79619 4.49243 1.71799 4.27141C1.44893 3.50989 1.7712 2.78521 2.52712 2.50731C4.73907 1.69409 6.95361 0.887553 9.17009 0.0870437C9.89413 -0.174479 10.6169 0.170628 10.8922 0.889922C11.0352 1.26368 11.174 1.63938 11.2989 2.01938C11.3463 2.16328 11.4083 2.21391 11.5654 2.21305C12.7299 2.20551 13.8947 2.20421 15.0595 2.21132C15.801 2.21585 16.3753 2.79404 16.3863 3.5338C16.3923 3.94741 16.3876 4.36102 16.3876 4.77463C16.3876 4.83495 16.3876 4.89505 16.3876 4.95171C17.6564 5.09583 18.4117 5.93942 18.4121 7.18391C18.4124 7.80756 18.4121 8.43121 18.4121 9.05464C18.4121 9.15438 18.4121 9.25412 18.4121 9.34955C18.4569 9.36528 18.4802 9.37562 18.5043 9.38187C19.1616 9.55162 19.5558 10.0497 19.5573 10.7231C19.5597 11.7285 19.5614 12.7338 19.5565 13.7392C19.5534 14.3579 19.1566 14.8663 18.5621 15.0335C18.5149 15.0468 18.4675 15.0593 18.4121 15.0746C18.4121 15.1532 18.4121 15.2226 18.4121 15.292C18.4117 16.0238 18.4197 16.7556 18.4089 17.4873C18.3956 18.3964 17.7904 19.1887 16.9249 19.4516C16.7982 19.4901 16.6685 19.5179 16.5403 19.5507ZM17.2661 15.0787C16.5285 15.0787 15.8219 15.0867 15.1155 15.077C13.5841 15.0559 12.3217 13.7941 12.3008 12.2739C12.2789 10.6567 13.5436 9.3642 15.1653 9.35128C15.7954 9.34632 16.4257 9.35042 17.0561 9.3502C17.1231 9.3502 17.1901 9.3502 17.2661 9.3502C17.2661 8.57662 17.2685 7.83233 17.2652 7.08827C17.2626 6.51029 16.8577 6.10529 16.276 6.10508C11.5652 6.10357 6.85409 6.10357 2.14324 6.10486C1.54953 6.10508 1.14691 6.50835 1.14669 7.10011C1.1454 10.5307 1.1454 13.9615 1.14669 17.3921C1.14691 17.9938 1.55169 18.4009 2.15228 18.4012C6.85689 18.4025 11.5615 18.4025 16.2661 18.401C16.8559 18.4007 17.2631 17.9927 17.2654 17.4048C17.2682 16.6855 17.2661 15.9665 17.2661 15.2472C17.2661 15.1978 17.2661 15.1487 17.2661 15.0787ZM10.1432 2.19021C10.041 1.90348 9.94389 1.62257 9.84114 1.3436C9.76768 1.14412 9.69616 1.11267 9.48957 1.18785C7.31617 1.97802 5.14299 2.76862 2.97024 3.5603C2.76731 3.63419 2.73263 3.70829 2.80437 3.90842C2.90949 4.20139 3.02927 4.48963 3.12233 4.78605C3.16778 4.93081 3.24103 4.96183 3.3817 4.9614C5.03657 4.95666 6.69145 4.95839 8.34632 4.95839C8.41332 4.95839 8.4801 4.95839 8.53934 4.95839C8.54839 4.92284 8.55119 4.91681 8.55119 4.91078C8.55334 4.44633 8.55011 3.98188 8.55808 3.51743C8.56864 2.90003 8.99582 2.37547 9.59857 2.24579C9.76983 2.20917 9.94842 2.20895 10.1432 2.19021ZM16.6166 10.4962C16.1584 10.4962 15.7002 10.495 15.242 10.4971C15.1278 10.4978 15.0117 10.4986 14.8999 10.518C13.9943 10.6761 13.3762 11.4628 13.4512 12.3568C13.5257 13.2481 14.2666 13.9262 15.186 13.9318C16.1661 13.9378 17.1461 13.9337 18.1263 13.9329C18.3527 13.9327 18.4115 13.8754 18.4117 13.6539C18.4128 12.6931 18.4128 11.7321 18.4117 10.7713C18.4115 10.5469 18.3583 10.4969 18.1252 10.4965C17.6222 10.4954 17.1194 10.4962 16.6166 10.4962ZM9.70326 4.94525C11.5609 4.94525 13.3947 4.94525 15.2416 4.94525C15.2416 4.51354 15.2418 4.09476 15.2416 3.67598C15.2413 3.39248 15.2043 3.35435 14.9253 3.35435C13.2909 3.35414 11.6565 3.35414 10.0221 3.35435C9.98396 3.35435 9.94583 3.35392 9.9077 3.35543C9.7778 3.3606 9.7052 3.43018 9.70434 3.55857C9.70154 4.0157 9.70326 4.47283 9.70326 4.94525Z" fill="white"/>
</svg>
