<svg width="148" height="32" viewBox="0 0 148 32" fill="none" xmlns="http://www.w3.org/2000/svg">
<rect x="0.5" y="0.5" width="147" height="31" rx="9.5" fill="white" stroke="#1A237E"/>
<path d="M43.438 21.084C42.822 21.084 42.2853 21.014 41.828 20.874C41.3707 20.734 40.988 20.482 40.68 20.118C40.372 19.7447 40.1433 19.2127 39.994 18.522C39.8447 17.822 39.77 16.9167 39.77 15.806C39.77 14.7607 39.8447 13.8973 39.994 13.216C40.1527 12.5347 40.386 12.0027 40.694 11.62C41.0113 11.2373 41.4033 10.9713 41.87 10.822C42.3367 10.6727 42.878 10.598 43.494 10.598C43.8393 10.598 44.194 10.6167 44.558 10.654C44.9313 10.6913 45.286 10.7427 45.622 10.808C45.9673 10.864 46.2753 10.9293 46.546 11.004V12.068C46.378 12.04 46.1493 12.012 45.86 11.984C45.5707 11.9467 45.244 11.9187 44.88 11.9C44.516 11.872 44.138 11.858 43.746 11.858C43.2793 11.858 42.8827 11.914 42.556 12.026C42.2293 12.1287 41.9633 12.3247 41.758 12.614C41.5527 12.894 41.4033 13.2953 41.31 13.818C41.2167 14.3313 41.17 14.9987 41.17 15.82C41.17 16.6507 41.212 17.332 41.296 17.864C41.3893 18.3867 41.534 18.7927 41.73 19.082C41.926 19.362 42.1873 19.558 42.514 19.67C42.8407 19.7727 43.2467 19.824 43.732 19.824C44.432 19.824 45.006 19.8053 45.454 19.768C45.902 19.7307 46.266 19.6933 46.546 19.656V20.734C46.266 20.7993 45.958 20.86 45.622 20.916C45.286 20.972 44.9313 21.014 44.558 21.042C44.194 21.07 43.8207 21.084 43.438 21.084ZM51.0437 21.084C50.4744 21.084 49.9797 21.0233 49.5597 20.902C49.1491 20.7807 48.8084 20.58 48.5377 20.3C48.2671 20.0107 48.0664 19.6187 47.9357 19.124C47.8051 18.6293 47.7397 18.004 47.7397 17.248C47.7397 16.464 47.8051 15.8247 47.9357 15.33C48.0664 14.826 48.2671 14.434 48.5377 14.154C48.8084 13.874 49.1537 13.6827 49.5737 13.58C49.9937 13.468 50.4837 13.412 51.0437 13.412C51.6037 13.412 52.0937 13.468 52.5137 13.58C52.9337 13.692 53.2791 13.888 53.5497 14.168C53.8204 14.448 54.0211 14.84 54.1517 15.344C54.2824 15.8387 54.3477 16.4733 54.3477 17.248C54.3477 18.0133 54.2824 18.648 54.1517 19.152C54.0211 19.6467 53.8204 20.034 53.5497 20.314C53.2884 20.594 52.9477 20.7947 52.5277 20.916C52.1077 21.028 51.6131 21.084 51.0437 21.084ZM51.0437 19.936C51.3517 19.936 51.6224 19.908 51.8557 19.852C52.0984 19.796 52.2991 19.6793 52.4577 19.502C52.6164 19.3153 52.7377 19.04 52.8217 18.676C52.9057 18.312 52.9477 17.8313 52.9477 17.234C52.9477 16.6367 52.9057 16.1607 52.8217 15.806C52.7377 15.442 52.6164 15.1713 52.4577 14.994C52.2991 14.8167 52.0984 14.7 51.8557 14.644C51.6224 14.5787 51.3517 14.546 51.0437 14.546C50.7264 14.546 50.4464 14.5787 50.2037 14.644C49.9704 14.7 49.7744 14.8167 49.6157 14.994C49.4664 15.1713 49.3497 15.442 49.2657 15.806C49.1911 16.1607 49.1537 16.6367 49.1537 17.234C49.1537 17.8313 49.1911 18.312 49.2657 18.676C49.3497 19.04 49.4664 19.3153 49.6157 19.502C49.7744 19.6793 49.9704 19.796 50.2037 19.852C50.4464 19.908 50.7264 19.936 51.0437 19.936ZM56.0581 21V13.51H57.1781L57.4581 14.322C57.7941 14.0793 58.1908 13.8647 58.6481 13.678C59.1148 13.482 59.5955 13.384 60.0901 13.384C60.6501 13.384 61.0981 13.5053 61.4341 13.748C61.7795 13.9813 62.0268 14.294 62.1761 14.686C62.3255 15.078 62.4001 15.5027 62.4001 15.96V21H61.0001V16.128C61.0001 15.8293 60.9395 15.5727 60.8181 15.358C60.7061 15.134 60.5475 14.9613 60.3421 14.84C60.1368 14.7187 59.8848 14.658 59.5861 14.658C59.3061 14.658 59.0448 14.686 58.8021 14.742C58.5688 14.798 58.3448 14.8773 58.1301 14.98C57.9155 15.0733 57.6915 15.19 57.4581 15.33V21H56.0581ZM64.3159 21V13.51H65.4359L65.7159 14.322C66.0519 14.0793 66.4486 13.8647 66.9059 13.678C67.3726 13.482 67.8533 13.384 68.3479 13.384C68.9079 13.384 69.3559 13.5053 69.6919 13.748C70.0373 13.9813 70.2846 14.294 70.4339 14.686C70.5833 15.078 70.6579 15.5027 70.6579 15.96V21H69.2579V16.128C69.2579 15.8293 69.1973 15.5727 69.0759 15.358C68.9639 15.134 68.8053 14.9613 68.5999 14.84C68.3946 14.7187 68.1426 14.658 67.8439 14.658C67.5639 14.658 67.3026 14.686 67.0599 14.742C66.8266 14.798 66.6026 14.8773 66.3879 14.98C66.1733 15.0733 65.9493 15.19 65.7159 15.33V21H64.3159ZM75.5278 21.084C74.7344 21.084 74.0998 20.9673 73.6238 20.734C73.1571 20.5007 72.8211 20.1087 72.6158 19.558C72.4198 18.998 72.3218 18.228 72.3218 17.248C72.3218 16.2493 72.4198 15.4747 72.6158 14.924C72.8211 14.364 73.1571 13.972 73.6238 13.748C74.0904 13.524 74.7204 13.412 75.5138 13.412C76.2044 13.412 76.7598 13.4867 77.1798 13.636C77.6091 13.776 77.9218 14.0327 78.1178 14.406C78.3231 14.77 78.4258 15.2787 78.4258 15.932C78.4258 16.3893 78.3324 16.7533 78.1458 17.024C77.9684 17.2947 77.7118 17.4907 77.3758 17.612C77.0491 17.7333 76.6571 17.794 76.1998 17.794H73.7218C73.7311 18.3353 73.7918 18.7693 73.9038 19.096C74.0251 19.4133 74.2351 19.6467 74.5338 19.796C74.8418 19.936 75.2898 20.006 75.8778 20.006H78.2158V20.846C77.8144 20.902 77.4038 20.9533 76.9838 21C76.5638 21.056 76.0784 21.084 75.5278 21.084ZM73.7078 16.912H76.0738C76.4471 16.912 76.7224 16.842 76.8998 16.702C77.0771 16.562 77.1658 16.3053 77.1658 15.932C77.1658 15.5587 77.1098 15.2647 76.9978 15.05C76.8951 14.8353 76.7224 14.6813 76.4798 14.588C76.2371 14.4947 75.9151 14.448 75.5138 14.448C75.0564 14.448 74.6924 14.518 74.4218 14.658C74.1604 14.798 73.9738 15.0453 73.8618 15.4C73.7591 15.7547 73.7078 16.2587 73.7078 16.912ZM82.9203 21.084C82.4816 21.084 82.0756 21.028 81.7023 20.916C81.3383 20.7947 81.0163 20.594 80.7363 20.314C80.4656 20.034 80.2556 19.6467 80.1063 19.152C79.957 18.6573 79.8823 18.032 79.8823 17.276C79.8823 16.5013 79.9523 15.8667 80.0923 15.372C80.2323 14.868 80.433 14.476 80.6943 14.196C80.965 13.9067 81.2916 13.706 81.6743 13.594C82.057 13.482 82.4863 13.426 82.9623 13.426C83.3543 13.426 83.765 13.4447 84.1943 13.482C84.633 13.5193 85.0576 13.58 85.4683 13.664V14.49H83.3543C82.897 14.49 82.5143 14.5647 82.2063 14.714C81.8983 14.854 81.6696 15.1293 81.5203 15.54C81.371 15.9413 81.2963 16.5247 81.2963 17.29C81.2963 18.0273 81.3756 18.5967 81.5343 18.998C81.693 19.39 81.9216 19.656 82.2203 19.796C82.5283 19.936 82.911 20.006 83.3683 20.006H85.5803V20.804C85.3656 20.86 85.109 20.9113 84.8103 20.958C84.521 20.9953 84.213 21.0233 83.8863 21.042C83.569 21.07 83.247 21.084 82.9203 21.084ZM89.5876 21C89.0836 21 88.6636 20.9207 88.3276 20.762C88.0009 20.594 87.7582 20.328 87.5996 19.964C87.4502 19.6 87.3802 19.1147 87.3896 18.508L87.4456 14.658H86.2556V13.748L87.4736 13.51L87.6836 11.41H88.7896V13.51H90.8196V14.658H88.7896V18.494C88.7896 18.7833 88.8176 19.0167 88.8736 19.194C88.9296 19.3713 89.0089 19.5067 89.1116 19.6C89.2142 19.6933 89.3262 19.7633 89.4476 19.81C89.5689 19.8473 89.6856 19.8707 89.7976 19.88L90.7216 19.964V21H89.5876ZM97.9687 21L95.3787 10.682H96.8347L98.8787 18.998L101.231 10.682H102.603L104.941 18.998L106.999 10.682H108.441L105.851 21H104.367L101.917 12.684L99.4527 21H97.9687ZM110.904 21.084C110.353 21.084 109.896 20.9207 109.532 20.594C109.177 20.258 109 19.796 109 19.208V18.62C109 18.0413 109.196 17.57 109.588 17.206C109.989 16.8327 110.591 16.646 111.394 16.646H113.732V15.862C113.732 15.5727 113.68 15.33 113.578 15.134C113.484 14.9287 113.307 14.7747 113.046 14.672C112.784 14.5693 112.397 14.518 111.884 14.518H109.588V13.692C109.924 13.6173 110.316 13.552 110.764 13.496C111.221 13.44 111.753 13.4073 112.36 13.398C112.976 13.398 113.489 13.4773 113.9 13.636C114.32 13.7853 114.632 14.0373 114.838 14.392C115.043 14.7373 115.146 15.1993 115.146 15.778V21H114.04L113.802 20.174C113.746 20.2113 113.629 20.2813 113.452 20.384C113.274 20.4773 113.046 20.58 112.766 20.692C112.495 20.804 112.196 20.8973 111.87 20.972C111.552 21.0467 111.23 21.084 110.904 21.084ZM111.548 20.062C111.688 20.0713 111.851 20.0573 112.038 20.02C112.234 19.9827 112.425 19.9407 112.612 19.894C112.808 19.838 112.985 19.782 113.144 19.726C113.312 19.67 113.447 19.6233 113.55 19.586C113.662 19.5393 113.722 19.5113 113.732 19.502V17.346L111.772 17.43C111.286 17.458 110.936 17.5793 110.722 17.794C110.516 18.0087 110.414 18.2887 110.414 18.634V18.97C110.414 19.2407 110.47 19.46 110.582 19.628C110.694 19.7867 110.834 19.8987 111.002 19.964C111.179 20.0293 111.361 20.062 111.548 20.062ZM119.134 21.014C118.677 21.014 118.29 20.9347 117.972 20.776C117.664 20.6173 117.431 20.3653 117.272 20.02C117.123 19.6653 117.048 19.1893 117.048 18.592V10.318H118.448V18.41C118.448 18.802 118.486 19.1053 118.56 19.32C118.644 19.5253 118.756 19.67 118.896 19.754C119.046 19.838 119.218 19.894 119.414 19.922L120.114 20.006V21.014H119.134ZM123.332 21.014C122.874 21.014 122.487 20.9347 122.17 20.776C121.862 20.6173 121.628 20.3653 121.47 20.02C121.32 19.6653 121.246 19.1893 121.246 18.592V10.318H122.646V18.41C122.646 18.802 122.683 19.1053 122.758 19.32C122.842 19.5253 122.954 19.67 123.094 19.754C123.243 19.838 123.416 19.894 123.612 19.922L124.312 20.006V21.014H123.332ZM128.397 21.084C127.604 21.084 126.969 20.9673 126.493 20.734C126.026 20.5007 125.69 20.1087 125.485 19.558C125.289 18.998 125.191 18.228 125.191 17.248C125.191 16.2493 125.289 15.4747 125.485 14.924C125.69 14.364 126.026 13.972 126.493 13.748C126.96 13.524 127.59 13.412 128.383 13.412C129.074 13.412 129.629 13.4867 130.049 13.636C130.478 13.776 130.791 14.0327 130.987 14.406C131.192 14.77 131.295 15.2787 131.295 15.932C131.295 16.3893 131.202 16.7533 131.015 17.024C130.838 17.2947 130.581 17.4907 130.245 17.612C129.918 17.7333 129.526 17.794 129.069 17.794H126.591C126.6 18.3353 126.661 18.7693 126.773 19.096C126.894 19.4133 127.104 19.6467 127.403 19.796C127.711 19.936 128.159 20.006 128.747 20.006H131.085V20.846C130.684 20.902 130.273 20.9533 129.853 21C129.433 21.056 128.948 21.084 128.397 21.084ZM126.577 16.912H128.943C129.316 16.912 129.592 16.842 129.769 16.702C129.946 16.562 130.035 16.3053 130.035 15.932C130.035 15.5587 129.979 15.2647 129.867 15.05C129.764 14.8353 129.592 14.6813 129.349 14.588C129.106 14.4947 128.784 14.448 128.383 14.448C127.926 14.448 127.562 14.518 127.291 14.658C127.03 14.798 126.843 15.0453 126.731 15.4C126.628 15.7547 126.577 16.2587 126.577 16.912ZM135.593 21C135.089 21 134.669 20.9207 134.333 20.762C134.007 20.594 133.764 20.328 133.605 19.964C133.456 19.6 133.386 19.1147 133.395 18.508L133.451 14.658H132.261V13.748L133.479 13.51L133.689 11.41H134.795V13.51H136.825V14.658H134.795V18.494C134.795 18.7833 134.823 19.0167 134.879 19.194C134.935 19.3713 135.015 19.5067 135.117 19.6C135.22 19.6933 135.332 19.7633 135.453 19.81C135.575 19.8473 135.691 19.8707 135.803 19.88L136.727 19.964V21H135.593Z" fill="#1A237E"/>
<path d="M28.5403 25.5507C23.6509 25.5507 18.7612 25.5507 13.8718 25.5507C13.8365 25.5388 13.802 25.5222 13.7658 25.516C13.1081 25.4005 12.6017 25.0567 12.2798 24.4753C12.1508 24.2424 12.0913 23.9712 12 23.7176C12 20.0766 12 16.4357 12 12.7946C12.0118 12.7589 12.0271 12.724 12.0351 12.6876C12.2217 11.8156 12.7482 11.2623 13.6027 11.0194C13.7161 10.9873 13.8343 10.9733 13.9634 10.9483C13.8776 10.7122 13.7962 10.4924 13.718 10.2714C13.4489 9.50989 13.7712 8.78521 14.5271 8.50731C16.7391 7.69409 18.9536 6.88755 21.1701 6.08704C21.8941 5.82552 22.6169 6.17063 22.8922 6.88992C23.0352 7.26368 23.174 7.63938 23.2989 8.01938C23.3463 8.16328 23.4083 8.21391 23.5654 8.21305C24.7299 8.20551 25.8947 8.20421 27.0595 8.21132C27.801 8.21585 28.3753 8.79404 28.3863 9.5338C28.3923 9.94741 28.3876 10.361 28.3876 10.7746C28.3876 10.8349 28.3876 10.8951 28.3876 10.9517C29.6564 11.0958 30.4117 11.9394 30.4121 13.1839C30.4124 13.8076 30.4121 14.4312 30.4121 15.0546C30.4121 15.1544 30.4121 15.2541 30.4121 15.3496C30.4569 15.3653 30.4802 15.3756 30.5043 15.3819C31.1616 15.5516 31.5558 16.0497 31.5573 16.7231C31.5597 17.7285 31.5614 18.7338 31.5565 19.7392C31.5534 20.3579 31.1566 20.8663 30.5621 21.0335C30.5149 21.0468 30.4675 21.0593 30.4121 21.0746C30.4121 21.1532 30.4121 21.2226 30.4121 21.292C30.4117 22.0238 30.4197 22.7556 30.4089 23.4873C30.3956 24.3964 29.7904 25.1887 28.9249 25.4516C28.7982 25.4901 28.6685 25.5179 28.5403 25.5507ZM29.2661 21.0787C28.5285 21.0787 27.8219 21.0867 27.1155 21.077C25.5841 21.0559 24.3217 19.7941 24.3008 18.2739C24.2789 16.6567 25.5436 15.3642 27.1653 15.3513C27.7954 15.3463 28.4257 15.3504 29.0561 15.3502C29.1231 15.3502 29.19 15.3502 29.2661 15.3502C29.2661 14.5766 29.2685 13.8323 29.2652 13.0883C29.2626 12.5103 28.8577 12.1053 28.276 12.1051C23.5652 12.1036 18.8541 12.1036 14.1432 12.1049C13.5495 12.1051 13.1469 12.5083 13.1467 13.1001C13.1454 16.5307 13.1454 19.9615 13.1467 23.3921C13.1469 23.9938 13.5517 24.4009 14.1523 24.4012C18.8569 24.4025 23.5615 24.4025 28.2661 24.401C28.8559 24.4007 29.2631 23.9927 29.2654 23.4048C29.2682 22.6855 29.2661 21.9665 29.2661 21.2472C29.2661 21.1978 29.2661 21.1487 29.2661 21.0787ZM22.1432 8.19021C22.041 7.90348 21.9439 7.62257 21.8411 7.3436C21.7677 7.14412 21.6962 7.11267 21.4896 7.18785C19.3162 7.97802 17.143 8.76862 14.9702 9.5603C14.7673 9.63419 14.7326 9.70829 14.8044 9.90842C14.9095 10.2014 15.0293 10.4896 15.1223 10.786C15.1678 10.9308 15.241 10.9618 15.3817 10.9614C17.0366 10.9567 18.6914 10.9584 20.3463 10.9584C20.4133 10.9584 20.4801 10.9584 20.5393 10.9584C20.5484 10.9228 20.5512 10.9168 20.5512 10.9108C20.5533 10.4463 20.5501 9.98188 20.5581 9.51743C20.5686 8.90003 20.9958 8.37547 21.5986 8.24579C21.7698 8.20917 21.9484 8.20895 22.1432 8.19021ZM28.6166 16.4962C28.1584 16.4962 27.7002 16.495 27.242 16.4971C27.1278 16.4978 27.0117 16.4986 26.8999 16.518C25.9943 16.6761 25.3762 17.4628 25.4512 18.3568C25.5257 19.2481 26.2666 19.9262 27.186 19.9318C28.1661 19.9378 29.1461 19.9337 30.1263 19.9329C30.3527 19.9327 30.4115 19.8754 30.4117 19.6539C30.4128 18.6931 30.4128 17.7321 30.4117 16.7713C30.4115 16.5469 30.3583 16.4969 30.1252 16.4965C29.6222 16.4954 29.1194 16.4962 28.6166 16.4962ZM21.7033 10.9452C23.5609 10.9452 25.3947 10.9452 27.2416 10.9452C27.2416 10.5135 27.2418 10.0948 27.2416 9.67598C27.2413 9.39248 27.2043 9.35435 26.9253 9.35435C25.2909 9.35414 23.6565 9.35414 22.0221 9.35435C21.984 9.35435 21.9458 9.35392 21.9077 9.35543C21.7778 9.3606 21.7052 9.43018 21.7043 9.55857C21.7015 10.0157 21.7033 10.4728 21.7033 10.9452Z" fill="#1A237E"/>
<path d="M27.1584 18.7871C26.8505 18.783 26.5918 18.5197 26.5927 18.2115C26.5935 17.8924 26.8596 17.6354 27.181 17.6432C27.4923 17.6507 27.7437 17.9133 27.7372 18.2244C27.7308 18.5329 27.4649 18.7912 27.1584 18.7871Z" fill="black"/>
</svg>
