<svg width="22" height="24" viewBox="0 0 22 24" fill="none" xmlns="http://www.w3.org/2000/svg">
<path d="M11.9756 23.184H10.5973L10.5358 23.1715C10.5142 23.1671 10.4924 23.1624 10.4709 23.1577C10.4396 23.1508 10.4098 23.1446 10.3891 23.1415C10.2347 23.1184 10.0807 23.0988 9.91778 23.0782C9.56889 23.034 9.20823 22.988 8.84623 22.9055C6.124 22.2846 3.75156 20.6888 2.16578 18.4122C0.578442 16.1335 -0.0915581 13.3577 0.279109 10.596C0.661554 7.7464 1.95711 5.38173 4.13022 3.56773C6.60689 1.49996 9.50156 0.649067 12.7331 1.03862C13.8958 1.17862 15.04 1.51996 16.1342 2.05307C16.7693 2.36262 17.044 3.04218 16.7873 3.66929C16.5658 4.2104 16.0691 4.36529 15.8571 4.43151C13.1127 5.28796 11.5653 7.94262 12.178 10.744C12.6933 13.1 14.8222 14.84 17.2405 14.8808C18.2249 14.8971 19.1176 14.678 19.9709 14.21C20.6669 13.828 21.1853 14.1073 21.4322 14.3077C21.8631 14.6573 21.9913 15.2091 21.7753 15.7835L21.7538 15.8408C21.6449 16.1308 21.5322 16.4308 21.3889 16.7262C19.7565 20.0893 17.0809 22.1895 13.4365 22.9688C13.1007 23.0406 12.7669 23.082 12.4442 23.1222C12.2976 23.1404 12.1589 23.1575 12.0198 23.1775L11.9756 23.184ZM10.726 21.9248H11.8864C12.0222 21.906 12.1576 21.8891 12.2891 21.8728C12.5987 21.8344 12.8911 21.798 13.1733 21.7377C16.4647 21.034 18.7816 19.2148 20.2565 16.1766C20.3745 15.9337 20.472 15.6737 20.5753 15.3984L20.5971 15.3406C20.6036 15.3235 20.6082 15.3086 20.6118 15.2962C20.6018 15.3006 20.59 15.3066 20.5767 15.314C19.5409 15.8822 18.4113 16.1602 17.2193 16.14C14.2242 16.0893 11.5869 13.9331 10.9482 11.0131C10.5851 9.3524 10.8424 7.65284 11.6731 6.22707C12.5036 4.80151 13.8565 3.73707 15.4825 3.22973C15.5345 3.21351 15.57 3.20084 15.5945 3.19084C15.5909 3.18907 15.5871 3.18707 15.5831 3.18507C14.6153 2.71373 13.6058 2.41218 12.5827 2.28884C9.70934 1.94262 7.13711 2.69818 4.93733 4.53462C3.01378 6.1404 1.86644 8.23618 1.52733 10.7637C0.845331 15.8422 4.11222 20.5344 9.126 21.678C9.428 21.7468 9.74289 21.7868 10.0764 21.8293C10.2391 21.85 10.4071 21.8713 10.5751 21.8964C10.6313 21.9048 10.6813 21.9153 10.726 21.9248Z" fill="#1A237E"/>
</svg>
