<svg width="43" height="32" viewBox="0 0 43 32" fill="none" xmlns="http://www.w3.org/2000/svg">
<rect x="0.5" y="0.5" width="42" height="31" rx="1.5" stroke="#1A237E"/>
<path d="M23.561 26H22.3214L22.266 25.9888C22.2466 25.9848 22.227 25.9806 22.2077 25.9764C22.1795 25.9702 22.1527 25.9646 22.1341 25.9618C21.9952 25.941 21.8567 25.9235 21.7102 25.9049C21.3964 25.8651 21.072 25.8237 20.7464 25.7496C18.2981 25.1911 16.1643 23.7559 14.7381 21.7083C13.3105 19.6589 12.7079 17.1623 13.0412 14.6784C13.3852 12.1155 14.5504 9.98878 16.5049 8.35727C18.7324 6.49753 21.3358 5.73224 24.2423 6.0826C25.288 6.20852 26.3171 6.51551 27.3012 6.99499C27.8724 7.2734 28.1195 7.88459 27.8886 8.44861C27.6894 8.93528 27.2427 9.07459 27.052 9.13415C24.5837 9.90443 23.192 12.292 23.743 14.8115C24.2065 16.9305 26.1212 18.4955 28.2962 18.5322C29.1816 18.5468 29.9844 18.3497 30.7519 17.9288C31.3779 17.5853 31.8442 17.8365 32.0662 18.0168C32.4538 18.3312 32.5691 18.8274 32.3748 19.3441L32.3554 19.3956C32.2575 19.6565 32.1562 19.9263 32.0273 20.1919C30.559 23.2167 28.1527 25.1056 24.8749 25.8065C24.5729 25.8711 24.2727 25.9083 23.9825 25.9444C23.8506 25.9608 23.7258 25.9762 23.6007 25.9942L23.561 26ZM22.4371 24.8676H23.4808C23.6029 24.8506 23.7246 24.8354 23.843 24.8208C24.1214 24.7862 24.3844 24.7534 24.6382 24.6993C27.5984 24.0663 29.6822 22.4302 31.0087 19.6976C31.1149 19.4792 31.2026 19.2453 31.2955 18.9977L31.3151 18.9457C31.3209 18.9304 31.3251 18.917 31.3283 18.9058C31.3193 18.9098 31.3087 18.9152 31.2967 18.9218C30.3652 19.4328 29.3493 19.6828 28.2772 19.6647C25.5834 19.6191 23.2114 17.6798 22.637 15.0536C22.3104 13.56 22.5418 12.0314 23.2889 10.7491C24.0358 9.46693 25.2526 8.50957 26.715 8.05328C26.7618 8.03869 26.7938 8.0273 26.8158 8.0183C26.8126 8.0167 26.8092 8.0149 26.8056 8.01311C25.9352 7.58919 25.0272 7.31797 24.107 7.20705C21.5227 6.89566 19.2093 7.5752 17.2308 9.22689C15.5008 10.6711 14.4689 12.556 14.1639 14.8293C13.5505 19.3968 16.4887 23.617 20.9981 24.6455C21.2697 24.7075 21.5529 24.7434 21.8529 24.7816C21.9992 24.8002 22.1503 24.8194 22.3014 24.842C22.352 24.8496 22.3969 24.859 22.4371 24.8676Z" fill="#1A237E"/>
</svg>
