<svg width="230" height="48" viewBox="0 0 230 48" fill="none" xmlns="http://www.w3.org/2000/svg">
<path d="M79.8368 34.7792C76.0212 34.7792 73.0253 33.7657 70.8467 31.7387C68.6681 29.7116 67.5801 26.6884 67.5801 22.6666C67.5801 18.6448 68.6284 15.6638 70.7275 13.7237C72.8266 11.7836 75.5194 10.8148 78.8084 10.8148C82.0651 10.8148 84.7008 11.8233 86.7204 13.8429C88.74 15.8625 89.7485 18.8013 89.7485 22.6641V23.5509C89.7485 24.013 89.5572 24.244 89.1747 24.244H71.2914C71.2914 26.3829 71.9845 28.1863 73.3731 29.6545C74.7617 31.1226 77.1639 31.8579 80.5796 31.8579C82.6861 31.8579 85.1131 31.7064 87.8581 31.4033V33.9893C84.4573 34.5159 81.7844 34.7792 79.8368 34.7792ZM86.1093 21.5661C85.8708 19.0596 85.1901 17.1344 84.0748 15.7855C82.9569 14.4366 81.1609 13.7634 78.6891 13.7634C76.1826 13.7634 74.3245 14.4863 73.1123 15.9296C71.9 17.3754 71.2939 19.2534 71.2939 21.5686H86.1093V21.5661Z" fill="#1A237E"/>
<path d="M101.491 34.8041C98.905 34.8041 95.9936 34.4936 92.7518 33.8701V31.381C96.4532 31.7163 99.3596 31.8827 101.466 31.8827C103.526 31.8827 105.041 31.6045 106.015 31.0456C106.988 30.4867 107.475 29.57 107.475 28.2932C107.475 27.1927 106.872 26.3506 105.667 25.7668C104.462 25.1855 102.693 24.6812 100.363 24.2589C98.0331 23.8366 96.1029 23.0939 94.5702 22.0331C93.0375 20.9724 92.2724 19.4049 92.2724 17.3282C92.2724 15.0949 93.0301 13.4504 94.5479 12.3972C96.0632 11.3439 98.5051 10.8173 101.874 10.8173C104.46 10.8173 107.212 11.1278 110.133 11.7513V14.2404C106.75 13.9224 104.005 13.761 101.898 13.761C99.8391 13.761 98.3238 14.0417 97.35 14.5981C96.3762 15.1571 95.8893 16.0588 95.8893 17.3033C95.8893 18.4212 96.488 19.2708 97.6853 19.8521C98.8827 20.4358 100.646 20.9376 102.977 21.3599C105.307 21.7822 107.242 22.525 108.782 23.5857C110.322 24.6465 111.092 26.2139 111.092 28.2907C111.092 30.5413 110.33 32.1883 108.807 33.2341C107.282 34.2824 104.842 34.8041 101.491 34.8041Z" fill="#1A237E"/>
<path d="M125.493 34.7793C121.839 34.7793 118.962 33.7707 116.863 31.7511C114.764 29.7315 113.715 26.7034 113.715 22.6666C113.715 18.6448 114.764 15.6639 116.863 13.7237C118.962 11.7836 121.839 10.8148 125.493 10.8148C127.264 10.8148 129.45 11.1253 132.053 11.7489V14.6205C129.659 14.0467 127.48 13.7585 125.518 13.7585C122.549 13.7585 120.443 14.5162 119.198 16.034C117.953 17.5493 117.33 19.7527 117.33 22.6418C117.33 25.5458 117.953 27.8088 119.198 29.4285C120.443 31.0481 122.549 31.858 125.518 31.858C127.465 31.858 129.644 31.6418 132.053 31.2121V33.7981C129.45 34.4539 127.264 34.7793 125.493 34.7793Z" fill="#1A237E"/>
<path d="M146.762 34.7793C143.108 34.7793 140.231 33.7707 138.132 31.7511C136.033 29.7315 134.985 26.7034 134.985 22.6666C134.985 18.6448 136.033 15.6639 138.132 13.7237C140.231 11.7836 143.108 10.8148 146.762 10.8148C148.533 10.8148 150.719 11.1253 153.323 11.7489V14.6205C150.928 14.0467 148.749 13.7585 146.787 13.7585C143.818 13.7585 141.712 14.5162 140.467 16.034C139.223 17.5493 138.599 19.7527 138.599 22.6418C138.599 25.5458 139.223 27.8088 140.467 29.4285C141.712 31.0481 143.818 31.858 146.787 31.858C148.734 31.858 150.913 31.6418 153.323 31.2121V33.7981C150.722 34.4539 148.536 34.7793 146.762 34.7793Z" fill="#1A237E"/>
<path d="M160.589 34.5408H156.974V15.3409C156.974 12.4842 158.85 11.0558 162.601 11.0558C164.819 11.0558 167.092 11.1999 169.425 11.4855V13.9995H163.391C161.523 13.9995 160.589 14.9186 160.589 16.7519V34.5408Z" fill="#1A237E"/>
<path d="M182.124 34.7793C178.802 34.7793 176.129 33.7707 174.102 31.7511C172.075 29.7315 171.062 26.7034 171.062 22.6666C171.062 18.6448 172.07 15.6639 174.09 13.7237C176.11 11.7836 178.785 10.8148 182.121 10.8148C185.457 10.8148 188.13 11.7836 190.142 13.7237C192.152 15.6639 193.158 18.6423 193.158 22.6666C193.158 26.7059 192.15 29.734 190.13 31.7511C188.113 33.7707 185.442 34.7793 182.124 34.7793ZM182.149 31.8604C187.08 31.8604 189.546 28.7876 189.546 22.6443C189.546 19.7726 188.967 17.5742 187.81 16.0489C186.652 14.5261 184.764 13.7635 182.149 13.7635C179.483 13.7635 177.573 14.5261 176.415 16.0489C175.258 17.5742 174.679 19.7726 174.679 22.6443C174.679 28.7876 177.168 31.8604 182.149 31.8604Z" fill="#1A237E"/>
<path d="M219.58 34.5408C218.256 34.5408 217.408 33.8303 217.043 32.4094L212.639 18.764C212.48 18.2548 212.318 17.9989 212.159 17.9989C212 17.9989 211.839 18.2548 211.68 18.764L207.348 32.1933C206.886 33.7583 205.991 34.5383 204.667 34.5383C203.343 34.5383 202.496 33.8204 202.131 32.3845L194.972 11.0533H198.897L204.163 29.5824C204.354 30.1414 204.533 30.4196 204.702 30.4196C204.868 30.4196 205.05 30.1414 205.241 29.5824L210.388 12.4891C210.659 11.5327 211.178 11.0533 211.943 11.0533H212.373C213.091 11.0533 213.585 11.5327 213.856 12.4891L219.075 29.5824C219.267 30.1414 219.445 30.4196 219.614 30.4196C219.783 30.4196 219.962 30.1414 220.153 29.5824L225.348 11.0533H229.275L222.26 32.1933C221.798 33.7583 220.904 34.5408 219.58 34.5408Z" fill="#1A237E"/>
<path d="M31.7812 24.4055L17.5918 0.00131226H32.4072C32.4072 0.00131226 39.0821 0.729165 41.8618 7.11588L31.7812 24.4055Z" fill="#EC00FF"/>
<path d="M25.2529 35.2661L41.755 6.90472L49.0286 19.4347C49.0286 19.4347 51.5351 23.5907 49.0286 28.7254L39.9217 44.1891C39.9217 44.1891 37.4773 48.1017 32.6481 47.9178L25.2529 35.2661Z" fill="url(#paint0_linear_15_1397)"/>
<path d="M18.7693 23.5211L32.9587 47.9253H18.1433C18.1433 47.9253 11.4684 47.1974 8.68866 40.8107L18.7693 23.5211Z" fill="#0086FF"/>
<path d="M25.2976 12.658L8.79545 41.0194L1.5219 28.4894C1.5219 28.4894 -0.984599 24.3334 1.5219 19.1987L10.6287 3.73497C10.6287 3.73497 13.0731 -0.177546 17.9023 0.00628058L25.2976 12.658Z" fill="url(#paint1_linear_15_1397)"/>
<defs>
<linearGradient id="paint0_linear_15_1397" x1="37.6977" y1="6.90475" x2="37.6977" y2="47.9241" gradientUnits="userSpaceOnUse">
<stop stop-color="#EC00FF"/>
<stop offset="1" stop-color="#0086FF"/>
</linearGradient>
<linearGradient id="paint1_linear_15_1397" x1="12.8527" y1="-4.28784e-06" x2="12.8527" y2="41.0194" gradientUnits="userSpaceOnUse">
<stop stop-color="#EC00FF"/>
<stop offset="1" stop-color="#0086FF"/>
</linearGradient>
</defs>
</svg>
