<svg width="110" height="30" viewBox="0 0 110 30" fill="none" xmlns="http://www.w3.org/2000/svg">
<path d="M55.0674 6.55705V23.443C55.0666 23.5067 55.0409 23.5676 54.9959 23.6126C54.9508 23.6577 54.8899 23.6834 54.8262 23.6842H53.0701C52.667 23.6845 52.2703 23.5837 51.9163 23.391C51.5623 23.1982 51.2623 22.9197 51.0438 22.581L43.0736 10.2623L43.347 16.4152V23.443C43.3462 23.5067 43.3205 23.5676 43.2754 23.6126C43.2304 23.6577 43.1695 23.6834 43.1058 23.6842H40.7836C40.7198 23.6834 40.659 23.6577 40.6139 23.6126C40.5688 23.5676 40.5432 23.5067 40.5423 23.443V6.55705C40.5432 6.49334 40.5688 6.43246 40.6139 6.3874C40.659 6.34234 40.7198 6.31666 40.7836 6.31583H42.53C42.9327 6.31604 43.3289 6.41676 43.6827 6.60884C44.0365 6.80093 44.3368 7.07831 44.5564 7.41582L52.5265 19.7152L52.2789 13.5848V6.55705C52.2789 6.49308 52.3043 6.43172 52.3495 6.38648C52.3947 6.34124 52.4561 6.31583 52.5201 6.31583H54.8423C54.9032 6.32064 54.96 6.34808 55.0017 6.39272C55.0434 6.43736 55.0668 6.49599 55.0674 6.55705V6.55705Z" fill="black" fill-opacity="0.4"/>
<path d="M78.801 23.6842H76.3437C76.3053 23.6839 76.2676 23.6743 76.2336 23.6564C76.1996 23.6385 76.1704 23.6128 76.1484 23.5813C76.1264 23.5499 76.1122 23.5136 76.107 23.4756C76.1018 23.4375 76.1058 23.3988 76.1186 23.3626L82.6285 6.54742C82.6563 6.47701 82.7053 6.41695 82.7686 6.37549C82.832 6.33402 82.9066 6.31319 82.9823 6.31584H86.0604C86.1333 6.31647 86.2044 6.33884 86.2646 6.38009C86.3247 6.42134 86.3712 6.4796 86.3981 6.54742L92.8887 23.3626C92.9015 23.3988 92.9055 23.4375 92.9003 23.4756C92.8951 23.5136 92.8809 23.5499 92.8589 23.5813C92.8369 23.6128 92.8077 23.6385 92.7737 23.6564C92.7397 23.6743 92.702 23.6839 92.6636 23.6842H90.2063C90.1571 23.6844 90.109 23.6698 90.0682 23.6423C90.0275 23.6147 89.996 23.5756 89.9779 23.5298L84.732 9.69946C84.7151 9.65289 84.6843 9.61265 84.6437 9.58422C84.6031 9.55578 84.5548 9.54053 84.5052 9.54053C84.4557 9.54053 84.4074 9.55578 84.3668 9.58422C84.3262 9.61265 84.2954 9.65289 84.2785 9.69946L79.0326 23.5298C79.0143 23.5761 78.9823 23.6156 78.9409 23.6432C78.8996 23.6708 78.8507 23.6851 78.801 23.6842V23.6842Z" fill="black" fill-opacity="0.4"/>
<path d="M109.948 23.295L105.066 17.0585C107.822 16.5374 109.434 14.6784 109.434 11.8255C109.434 8.54798 107.301 6.31583 103.528 6.31583H96.7194C96.6239 6.31583 96.5322 6.35378 96.4647 6.42134C96.3971 6.48889 96.3592 6.58052 96.3592 6.67606V6.67606C96.3592 6.98017 96.4191 7.28131 96.5354 7.56227C96.6518 7.84324 96.8224 8.09853 97.0374 8.31357C97.2525 8.52861 97.5078 8.69919 97.7887 8.81557C98.0697 8.93195 98.3708 8.99184 98.675 8.99184H103.245C105.526 8.99184 106.619 10.1594 106.619 11.8448C106.619 13.5301 105.552 14.7395 103.245 14.7395H96.7194C96.6236 14.7403 96.5319 14.779 96.4645 14.8471C96.397 14.9151 96.3592 15.0071 96.3592 15.1029V23.4655C96.3592 23.5295 96.3846 23.5908 96.4298 23.6361C96.4751 23.6813 96.5364 23.7067 96.6004 23.7067H98.9226C98.9863 23.7059 99.0472 23.6802 99.0923 23.6352C99.1373 23.5901 99.163 23.5292 99.1638 23.4655V17.2097H101.843L106.079 22.7386C106.306 23.0345 106.598 23.2738 106.933 23.4378C107.268 23.6019 107.636 23.6862 108.009 23.6842H109.771C109.815 23.6818 109.858 23.6673 109.894 23.6425C109.931 23.6176 109.959 23.5833 109.978 23.5432C109.996 23.5031 110.003 23.4587 109.998 23.415C109.992 23.3713 109.975 23.3298 109.948 23.295Z" fill="black" fill-opacity="0.4"/>
<path d="M71.458 6.31583H60.6832C60.5979 6.31583 60.5161 6.34971 60.4558 6.41003C60.3955 6.47035 60.3616 6.55216 60.3616 6.63746C60.3616 7.26274 60.61 7.8624 61.0521 8.30454C61.4942 8.74667 62.0939 8.99506 62.7192 8.99506H71.458C71.4898 8.99549 71.5214 8.98955 71.5509 8.97758C71.5803 8.96561 71.6071 8.94786 71.6296 8.92537C71.6521 8.90288 71.6698 8.87612 71.6818 8.84666C71.6938 8.81719 71.6997 8.78563 71.6993 8.75383V6.55705C71.6993 6.49308 71.6738 6.43172 71.6286 6.38648C71.5834 6.34124 71.522 6.31583 71.458 6.31583ZM71.458 21.005H63.4171C63.3534 21.0041 63.2925 20.9785 63.2475 20.9334C63.2024 20.8883 63.1767 20.8275 63.1759 20.7637V16.4088C63.1759 16.3448 63.2013 16.2835 63.2465 16.2382C63.2918 16.193 63.3531 16.1676 63.4171 16.1676H70.8501C70.9141 16.1676 70.9755 16.1421 71.0207 16.0969C71.066 16.0517 71.0914 15.9903 71.0914 15.9263V13.7135C71.0914 13.6495 71.066 13.5881 71.0207 13.5429C70.9755 13.4977 70.9141 13.4722 70.8501 13.4722H60.7218C60.626 13.4731 60.5343 13.5118 60.4669 13.5798C60.3994 13.6479 60.3616 13.7399 60.3616 13.8357V23.3111C60.3616 23.4067 60.3995 23.4983 60.4671 23.5658C60.5346 23.6334 60.6263 23.6713 60.7218 23.6713H71.458C71.522 23.6713 71.5834 23.6459 71.6286 23.6007C71.6738 23.5555 71.6993 23.4941 71.6993 23.4301V21.2333C71.6968 21.1713 71.6701 21.1128 71.6251 21.0701C71.58 21.0275 71.5201 21.0041 71.458 21.005Z" fill="black" fill-opacity="0.4"/>
<path d="M23.235 1.99625L17.1818 10.9796C17.0837 11.1092 17.0384 11.2712 17.0549 11.433C17.0714 11.5947 17.1485 11.7442 17.2708 11.8514C17.3931 11.9585 17.5514 12.0154 17.7139 12.0106C17.8764 12.0058 18.031 11.9397 18.1467 11.8255L24.1035 6.67928C24.1378 6.64778 24.1806 6.62706 24.2266 6.61969C24.2727 6.61231 24.3198 6.6186 24.3623 6.63778C24.4048 6.65696 24.4407 6.68818 24.4655 6.72758C24.4904 6.76697 24.5032 6.8128 24.5023 6.85939V23.0345C24.5018 23.0836 24.4863 23.1314 24.458 23.1715C24.4296 23.2116 24.3897 23.242 24.3435 23.2588C24.2974 23.2756 24.2472 23.2779 24.1997 23.2654C24.1522 23.2529 24.1096 23.2262 24.0777 23.1889L6.06607 1.63923C5.77853 1.29327 5.41879 1.01439 5.01208 0.82215C4.60537 0.629908 4.16154 0.528955 3.71169 0.526367H3.0845C2.26644 0.526367 1.48188 0.851339 0.903428 1.42979C0.324973 2.00825 0 2.7928 0 3.61086V26.3892C0 27.2072 0.324973 27.9918 0.903428 28.5702C1.48188 29.1487 2.26644 29.4737 3.0845 29.4737V29.4737C3.6116 29.4736 4.12989 29.3385 4.58992 29.0811C5.04994 28.8238 5.43635 28.4529 5.71227 28.0038L11.7655 19.0205C11.8636 18.8908 11.9089 18.7288 11.8924 18.5671C11.8759 18.4053 11.7988 18.2559 11.6765 18.1487C11.5543 18.0415 11.396 17.9846 11.2334 17.9894C11.0709 17.9942 10.9163 18.0604 10.8006 18.1746L4.84385 23.3208C4.80951 23.3523 4.76667 23.373 4.72066 23.3804C4.67465 23.3877 4.62749 23.3814 4.58502 23.3623C4.54256 23.3431 4.50665 23.3119 4.48176 23.2725C4.45688 23.2331 4.4441 23.1872 4.44502 23.1406V6.98162C4.4455 6.93251 4.46097 6.88472 4.48934 6.84463C4.51771 6.80454 4.55764 6.77407 4.6038 6.75729C4.64995 6.74051 4.70013 6.73821 4.74762 6.75071C4.79512 6.76321 4.83767 6.7899 4.86958 6.82723L22.8812 28.3769C23.171 28.7197 23.532 28.9952 23.9392 29.1841C24.3464 29.373 24.79 29.4707 25.2388 29.4705H25.8821C26.2872 29.4705 26.6883 29.3907 27.0625 29.2357C27.4367 29.0807 27.7768 28.8535 28.0632 28.567C28.3496 28.2806 28.5768 27.9406 28.7318 27.5663C28.8868 27.1921 28.9666 26.791 28.9666 26.386V3.61086C28.9666 3.20417 28.8862 2.80149 28.73 2.426C28.5738 2.05051 28.3448 1.70962 28.0564 1.42294C27.7679 1.13627 27.4256 0.909469 27.0491 0.755598C26.6727 0.601727 26.2695 0.523822 25.8628 0.526367V0.526367C25.3357 0.52643 24.8174 0.66157 24.3574 0.918891C23.8974 1.17621 23.511 1.54713 23.235 1.99625Z" fill="black" fill-opacity="0.4"/>
</svg>
