<svg width="20" height="21" viewBox="0 0 20 21" fill="none" xmlns="http://www.w3.org/2000/svg">
<ellipse cx="10" cy="10.5" rx="10" ry="10.5" fill="#CCCCCC"/>
<path d="M14.4701 3.95131L11.511 8.34474C11.4689 8.40801 11.4511 8.48441 11.4609 8.55979C11.4707 8.63518 11.5075 8.70446 11.5644 8.75481C11.6214 8.80517 11.6947 8.8332 11.7707 8.83372C11.8467 8.83424 11.9203 8.80721 11.978 8.75764L14.8909 6.23109C14.9079 6.21582 14.9291 6.20585 14.9517 6.20239C14.9744 6.19894 14.9975 6.20215 15.0184 6.21164C15.0392 6.22112 15.0569 6.23647 15.0691 6.25582C15.0814 6.27516 15.0878 6.29765 15.0875 6.32056V14.2305C15.0875 14.2547 15.08 14.2783 15.0661 14.2982C15.0522 14.318 15.0326 14.3331 15.0098 14.3413C14.987 14.3496 14.9623 14.3507 14.9389 14.3444C14.9155 14.3381 14.8946 14.3248 14.8791 14.3062L6.07451 3.76648C5.93289 3.59926 5.75655 3.46488 5.55775 3.37269C5.35895 3.2805 5.14245 3.23272 4.92331 3.23267H4.61561C4.21564 3.23267 3.83206 3.39155 3.54924 3.67437C3.26643 3.95718 3.10754 4.34076 3.10754 4.74073V15.8811C3.10754 16.2811 3.26643 16.6647 3.54924 16.9475C3.83206 17.2303 4.21564 17.3892 4.61561 17.3892C4.87349 17.3892 5.12708 17.3232 5.35219 17.1974C5.5773 17.0716 5.76642 16.8902 5.90149 16.6705L8.86059 12.2771C8.90274 12.2138 8.92055 12.1374 8.91072 12.0621C8.9009 11.9867 8.86411 11.9174 8.80716 11.867C8.7502 11.8167 8.67694 11.7886 8.60092 11.7881C8.5249 11.7876 8.45126 11.8146 8.39363 11.8642L5.48073 14.3908C5.46366 14.406 5.44251 14.416 5.41986 14.4195C5.39722 14.4229 5.37406 14.4197 5.35321 14.4102C5.33236 14.4007 5.31473 14.3854 5.30246 14.366C5.29018 14.3467 5.28381 14.3242 5.28411 14.3013V6.38937C5.28412 6.36516 5.29158 6.34153 5.30548 6.3217C5.31938 6.30187 5.33904 6.2868 5.36181 6.27853C5.38457 6.27027 5.40932 6.2692 5.43271 6.27549C5.45609 6.28178 5.47698 6.29511 5.49252 6.31367L14.2961 16.8554C14.4377 17.0226 14.6141 17.157 14.8129 17.2492C15.0117 17.3413 15.2282 17.3891 15.4473 17.3892H15.755C15.9531 17.3893 16.1493 17.3504 16.3324 17.2747C16.5155 17.1989 16.6819 17.0879 16.822 16.9478C16.9622 16.8078 17.0733 16.6415 17.1492 16.4585C17.225 16.2754 17.2641 16.0792 17.2641 15.8811V4.74073C17.2641 4.34076 17.1052 3.95718 16.8224 3.67437C16.5395 3.39155 16.156 3.23267 15.756 3.23267C15.4981 3.2326 15.2445 3.29862 15.0194 3.42443C14.7943 3.55023 14.6052 3.73163 14.4701 3.95131Z" fill="black"/>
</svg>
