<svg width="27" height="27" viewBox="0 0 27 27" fill="none" xmlns="http://www.w3.org/2000/svg">
<path d="M13.5826 0.579651C12.9095 0.796825 12.6561 1.27082 12.6863 1.95939C12.7147 2.6204 12.6846 3.28312 12.7018 3.94412C12.7156 4.45086 13.0896 4.86883 13.5705 4.96019C14.0729 5.05585 14.5831 4.80765 14.7788 4.33883C14.852 4.16302 14.8779 3.95705 14.8813 3.76401C14.8942 3.16247 14.8641 2.56007 14.8917 1.95939C14.9227 1.27082 14.6684 0.796825 13.9954 0.579651C13.8575 0.579651 13.7205 0.579651 13.5826 0.579651Z" fill="white"/>
<path d="M27 13.5851C26.7828 12.912 26.3088 12.6587 25.6203 12.6888C24.9593 12.7173 24.2965 12.6871 23.6355 12.7043C23.1288 12.7181 22.7108 13.0921 22.6195 13.573C22.5238 14.0755 22.772 14.5856 23.2408 14.7813C23.4166 14.8545 23.6226 14.8804 23.8156 14.8838C24.4172 14.8968 25.0196 14.8666 25.6203 14.8942C26.3088 14.9252 26.7828 14.671 27 13.9979C27 13.86 27 13.7221 27 13.5851Z" fill="white"/>
<path d="M13.7912 20.9483C17.7244 20.9423 20.9527 17.7123 20.9467 13.7885C20.9407 9.85522 17.7106 6.62691 13.7869 6.63294C9.85361 6.63898 6.6253 9.86901 6.63133 13.7928C6.63823 17.7269 9.86739 20.9552 13.7912 20.9483ZM13.7981 8.83743C16.5265 8.84519 18.7551 11.0841 18.7422 13.8066C18.7302 16.5264 16.5102 18.7412 13.7929 18.7447C11.0679 18.7481 8.83323 16.5135 8.83582 13.7885C8.83754 11.0617 11.0748 8.83054 13.7981 8.83743Z" fill="white"/>
<path d="M22.3463 4.13288C22.0343 4.12944 21.7749 4.25267 21.5595 4.4664C21.0459 4.974 20.5288 5.47902 20.0289 6.00041C19.5868 6.46147 19.5911 7.12592 20.0134 7.55423C20.4366 7.98341 21.107 7.99978 21.5664 7.56026C22.1128 7.03715 22.6479 6.50111 23.1676 5.95128C23.4856 5.61432 23.5373 5.19893 23.346 4.77665C23.1555 4.35523 22.8091 4.14581 22.3463 4.13288Z" fill="white"/>
<path d="M4.13124 5.23424C4.12779 5.54621 4.25189 5.80561 4.46476 6.02106C4.97236 6.5347 5.47737 7.05178 5.99876 7.55162C6.45983 7.99373 7.12427 7.98856 7.55259 7.56627C7.98177 7.14313 7.99728 6.47265 7.55776 6.01331C7.03465 5.46693 6.49861 4.93175 5.94878 4.41294C5.61181 4.09494 5.19643 4.04323 4.77414 4.23541C4.35272 4.42501 4.14331 4.77145 4.13124 5.23424Z" fill="white"/>
<path d="M22.2256 23.4562C22.8074 23.4346 23.1461 23.2295 23.34 22.8202C23.5287 22.422 23.5089 22.0083 23.209 21.686C22.6479 21.0819 22.0654 20.495 21.4578 19.9374C21.0562 19.5686 20.415 19.6332 20.0255 20.0159C19.6299 20.4045 19.5627 21.0578 19.9393 21.4671C20.4977 22.0738 21.0881 22.653 21.6913 23.2149C21.8542 23.3639 22.1153 23.4088 22.2256 23.4562Z" fill="white"/>
<path d="M4.12611 22.2169C4.14162 22.7986 4.34328 23.1407 4.75091 23.3372C5.15768 23.5337 5.57652 23.5105 5.90659 23.2019C6.50295 22.6452 7.08467 22.0695 7.63709 21.4688C8.01455 21.0586 7.94906 20.4071 7.55435 20.0176C7.15965 19.6272 6.51243 19.5703 6.10136 19.9504C5.5024 20.5045 4.92844 21.0879 4.37258 21.6852C4.22177 21.848 4.17437 22.1074 4.12611 22.2169Z" fill="white"/>
<path d="M2.7937 14.8838C3.17117 14.8838 3.5495 14.8967 3.92611 14.8812C4.52937 14.8562 4.97147 14.3891 4.97319 13.7971C4.97578 13.2033 4.53626 12.7198 3.93645 12.7052C3.16427 12.6862 2.39124 12.6862 1.61993 12.7052C1.02615 12.7198 0.575423 13.2154 0.579732 13.7997C0.584041 14.384 1.03649 14.8571 1.63544 14.8812C2.02066 14.8967 2.40761 14.8838 2.7937 14.8838Z" fill="white"/>
<path d="M12.695 24.81C12.695 25.1789 12.6846 25.5486 12.6976 25.9174C12.7191 26.5353 13.1862 26.9955 13.78 27.0007C14.3824 27.0059 14.8684 26.5405 14.8814 25.9114C14.896 25.1737 14.896 24.4351 14.8822 23.6974C14.8702 23.0597 14.3996 22.6055 13.7877 22.6072C13.1767 22.609 12.7174 23.064 12.6976 23.7035C12.6864 24.0723 12.6958 24.4412 12.6958 24.8109C12.6941 24.81 12.6941 24.81 12.695 24.81Z" fill="white"/>
</svg>
