<svg width="150" height="55" viewBox="0 0 150 55" fill="none" xmlns="http://www.w3.org/2000/svg">
<g filter="url(#filter0_d_0_1)">
<rect x="4" y="2" width="142" height="47" rx="6" fill="#E3E3E3"/>
</g>
<path d="M54.028 24V15.3H52.804V22.704L48.832 15.3H47.032V24H48.256V16.572L52.24 24H54.028ZM61.6226 21.132C61.7546 19.08 60.5906 17.436 58.6106 17.436C56.8466 17.436 55.4786 18.732 55.4786 20.784C55.4786 22.692 56.6066 24.156 58.6466 24.156C60.2186 24.156 61.2506 23.232 61.5386 22.128H60.4106C60.1346 22.764 59.6066 23.196 58.6466 23.196C57.6986 23.196 56.6906 22.524 56.6546 21.132H61.6226ZM58.6106 18.372C59.7746 18.372 60.4346 19.284 60.4706 20.196H56.6666C56.7626 18.9 57.6506 18.372 58.6106 18.372ZM66.9047 21.3C66.9047 22.824 65.9327 23.292 64.9127 23.292C64.1327 23.292 63.6647 22.884 63.6647 22.272C63.6647 21.384 64.9247 21.084 66.9047 20.892V21.3ZM64.6727 24.156C65.8247 24.156 66.4847 23.784 66.8807 23.112C66.8927 23.496 66.9287 23.76 66.9647 24H68.0687C67.9367 23.388 67.8887 22.656 67.9007 21.564L67.9127 20.076C67.9247 18.24 67.1567 17.412 65.3447 17.412C64.0967 17.412 62.8487 18.192 62.7527 19.584H63.8807C63.9287 18.78 64.4447 18.3 65.3567 18.3C66.1727 18.3 66.8207 18.684 66.8207 19.872V20.028C64.1807 20.316 62.4527 20.772 62.4527 22.296C62.4527 23.484 63.4607 24.156 64.6727 24.156ZM72.7558 17.52C72.6238 17.508 72.5398 17.508 72.4318 17.508C71.5798 17.544 70.9318 17.94 70.6078 18.672V17.544H69.5398V24H70.6318V20.616C70.6318 19.176 71.1358 18.636 72.1438 18.636C72.3238 18.636 72.5278 18.648 72.7558 18.684V17.52Z" fill="#1A237E"/>
<path d="M47.956 31.496C47.956 30.092 48.568 29.384 49.516 29.384C50.704 29.384 50.896 30.248 50.896 31.244V35H51.988V31.496C51.988 30.092 52.6 29.384 53.548 29.384C54.736 29.384 54.928 30.248 54.928 31.244V35H56.02V30.92C56.02 29.444 55.432 28.436 53.932 28.436C53.02 28.436 52.276 28.772 51.76 29.576C51.472 28.856 50.896 28.436 49.9 28.436C48.928 28.436 48.328 28.904 47.956 29.516V28.544H46.864V35H47.956V31.496ZM61.725 32.3C61.725 33.824 60.753 34.292 59.733 34.292C58.953 34.292 58.485 33.884 58.485 33.272C58.485 32.384 59.745 32.084 61.725 31.892V32.3ZM59.493 35.156C60.645 35.156 61.305 34.784 61.701 34.112C61.713 34.496 61.749 34.76 61.785 35H62.889C62.757 34.388 62.709 33.656 62.721 32.564L62.733 31.076C62.745 29.24 61.977 28.412 60.165 28.412C58.917 28.412 57.669 29.192 57.573 30.584H58.701C58.749 29.78 59.265 29.3 60.177 29.3C60.993 29.3 61.641 29.684 61.641 30.872V31.028C59.001 31.316 57.273 31.772 57.273 33.296C57.273 34.484 58.281 35.156 59.493 35.156ZM64.3601 28.544V35H65.4521V28.544H64.3601ZM64.3601 26.3V27.62H65.4521V26.3H64.3601ZM68.2763 28.544H67.1843V35H68.2763V31.496C68.2763 30.092 68.9243 29.384 69.9803 29.384C71.2283 29.384 71.3963 30.248 71.3963 31.244V35H72.4883V30.92C72.4883 29.444 71.9243 28.436 70.3643 28.436C69.2723 28.436 68.6483 28.904 68.2763 29.516V28.544ZM75.2138 28.544H74.1218V35H75.2138V31.496C75.2138 30.092 75.8618 29.384 76.9178 29.384C78.1658 29.384 78.3338 30.248 78.3338 31.244V35H79.4258V30.92C79.4258 29.444 78.8618 28.436 77.3018 28.436C76.2098 28.436 75.5858 28.904 75.2138 29.516V28.544ZM86.7593 32.132C86.8913 30.08 85.7273 28.436 83.7473 28.436C81.9833 28.436 80.6153 29.732 80.6153 31.784C80.6153 33.692 81.7433 35.156 83.7833 35.156C85.3553 35.156 86.3873 34.232 86.6753 33.128H85.5473C85.2713 33.764 84.7433 34.196 83.7833 34.196C82.8353 34.196 81.8273 33.524 81.7913 32.132H86.7593ZM83.7473 29.372C84.9113 29.372 85.5713 30.284 85.6073 31.196H81.8033C81.8993 29.9 82.7873 29.372 83.7473 29.372ZM88.344 28.544H87.324V29.42H88.344V33.38C88.344 34.724 88.632 35 89.868 35H90.66V34.088H90.108C89.484 34.088 89.436 33.92 89.436 33.248V29.42H90.66V28.544H89.436V26.924H88.344V28.544Z" fill="#1A237E"/>
<ellipse cx="29" cy="25.5" rx="13" ry="13.5" fill="white" fill-opacity="0.83"/>
<path d="M33.2645 19.0691L30.3672 23.3706C30.326 23.4326 30.3085 23.5074 30.3182 23.5812C30.3278 23.655 30.3638 23.7228 30.4196 23.7721C30.4753 23.8214 30.547 23.8489 30.6215 23.8494C30.6959 23.8499 30.768 23.8234 30.8244 23.7749L33.6764 21.3012C33.6931 21.2862 33.7138 21.2765 33.736 21.2731C33.7582 21.2697 33.7809 21.2729 33.8013 21.2821C33.8217 21.2914 33.8389 21.3065 33.851 21.3254C33.863 21.3443 33.8692 21.3664 33.8689 21.3888V29.1333C33.8689 29.157 33.8616 29.1801 33.848 29.1996C33.8344 29.219 33.8151 29.2337 33.7929 29.2418C33.7706 29.2499 33.7463 29.251 33.7234 29.2448C33.7005 29.2387 33.6801 29.2256 33.6649 29.2074L25.0444 18.8881C24.9058 18.7244 24.7331 18.5928 24.5385 18.5026C24.3438 18.4123 24.1319 18.3655 23.9173 18.3655H23.616C23.2244 18.3655 22.8489 18.521 22.572 18.7979C22.2951 19.0748 22.1395 19.4504 22.1395 19.842V30.7494C22.1395 31.141 22.2951 31.5166 22.572 31.7935C22.8489 32.0704 23.2244 32.2259 23.616 32.2259C23.8685 32.226 24.1168 32.1613 24.3372 32.0382C24.5576 31.915 24.7428 31.7374 24.875 31.5223L27.7723 27.2208C27.8135 27.1588 27.831 27.084 27.8213 27.0102C27.8117 26.9364 27.7757 26.8686 27.7199 26.8193C27.6642 26.77 27.5924 26.7425 27.518 26.742C27.4436 26.7415 27.3715 26.768 27.3151 26.8165L24.4631 29.2902C24.4464 29.3052 24.4257 29.3149 24.4035 29.3183C24.3813 29.3217 24.3586 29.3185 24.3382 29.3093C24.3178 29.3 24.3005 29.2849 24.2885 29.266C24.2765 29.2471 24.2703 29.225 24.2706 29.2026V21.4562C24.2706 21.4325 24.2779 21.4093 24.2915 21.3899C24.3051 21.3705 24.3244 21.3557 24.3466 21.3476C24.3689 21.3395 24.3932 21.3385 24.4161 21.3447C24.439 21.3508 24.4594 21.3639 24.4746 21.382L33.0941 31.7033C33.2327 31.867 33.4054 31.9986 33.6 32.0888C33.7947 32.1791 34.0067 32.2259 34.2212 32.2259H34.5225C34.7165 32.226 34.9086 32.1879 35.0878 32.1138C35.2671 32.0397 35.43 31.9309 35.5672 31.7938C35.7044 31.6567 35.8132 31.4939 35.8875 31.3147C35.9617 31.1355 36 30.9434 36 30.7494V19.842C36 19.4504 35.8444 19.0748 35.5675 18.7979C35.2906 18.521 34.915 18.3655 34.5234 18.3655C34.271 18.3654 34.0227 18.4301 33.8023 18.5532C33.5819 18.6764 33.3967 18.854 33.2645 19.0691Z" fill="black"/>
<circle cx="124" cy="26" r="10" fill="white"/>
<path d="M128.208 23.6038L124 27.8021L119.792 23.6038L118.5 24.8963L124 30.3963L129.5 24.8963L128.208 23.6038Z" fill="#1A237E"/>
<defs>
<filter id="filter0_d_0_1" x="0" y="0" width="150" height="55" filterUnits="userSpaceOnUse" color-interpolation-filters="sRGB">
<feFlood flood-opacity="0" result="BackgroundImageFix"/>
<feColorMatrix in="SourceAlpha" type="matrix" values="0 0 0 0 0 0 0 0 0 0 0 0 0 0 0 0 0 0 127 0" result="hardAlpha"/>
<feOffset dy="2"/>
<feGaussianBlur stdDeviation="2"/>
<feComposite in2="hardAlpha" operator="out"/>
<feColorMatrix type="matrix" values="0 0 0 0 0 0 0 0 0 0 0 0 0 0 0 0 0 0 0.3 0"/>
<feBlend mode="normal" in2="BackgroundImageFix" result="effect1_dropShadow_0_1"/>
<feBlend mode="normal" in="SourceGraphic" in2="effect1_dropShadow_0_1" result="shape"/>
</filter>
</defs>
</svg>
